<svg width="309" height="234" viewBox="0 0 309 234" fill="none" xmlns="http://www.w3.org/2000/svg">
<path d="M165.626 59.4902C166.007 59.3927 166.405 59.3831 166.79 59.462C167.175 59.541 167.537 59.7064 167.849 59.9459L167.167 59.8051C166.663 59.694 166.141 59.5902 165.626 59.4902Z" fill="black"/>
<path d="M146.759 125.167C147.415 125.537 146.226 126.963 145.818 126.122C145.817 125.998 145.841 125.874 145.888 125.759C145.935 125.643 146.004 125.538 146.091 125.45C146.178 125.361 146.282 125.29 146.397 125.242C146.512 125.193 146.635 125.167 146.759 125.167Z" fill="black"/>
<path d="M157.976 4.46198C159.307 2.41676 161.493 1.07551 163.782 0.345603C167.676 -0.465814 171.782 0.201104 175.383 1.82764C177.21 2.60942 178.492 4.16927 179.829 5.5698C180.34 6.48496 180.941 7.57426 180.54 8.64503C180.044 9.10817 179.544 9.56761 179.058 10.0419C177.576 11.2757 176.28 12.6762 174.816 13.9063C173.871 14.1027 172.849 14.2027 172.119 14.8992L173.301 15.4402L173.975 14.7918C174.242 15.4254 174.483 16.0664 174.716 16.7185C174.208 16.7185 173.567 16.6332 173.286 17.1631C171.433 19.7566 171.474 23.3432 169.184 25.6848C166.524 27.8856 162.808 27.4336 159.658 26.8334C158.176 26.3962 156.543 26.0257 155.461 24.8586C155.09 24.4251 154.764 23.9805 154.394 23.5655C154.712 21.3424 154.471 19.0934 154.394 16.8704C154.701 12.5724 155.435 8.07445 157.98 4.48421M172.593 3.89139C172.315 4.87695 173.423 4.79544 174.075 4.96958C174.183 4.09147 173.19 4.10629 172.593 3.89139ZM160.47 5.04738C159.966 5.41789 160.47 6.42198 161.033 5.98107C161.533 5.61056 161.033 4.60277 160.47 5.04738ZM164.175 14.3101C165.02 13.8655 165.172 12.8281 165.513 12.0315C164.234 11.8907 164.294 13.4431 164.175 14.3101ZM163.367 16.8296C163.819 16.6147 164.371 16.4924 164.646 16.0256C164.627 15.5353 164.55 15.049 164.416 14.5769C163.909 15.244 163.551 16.0123 163.367 16.8296ZM162.311 24.7622C161.782 24.7622 161.759 25.6626 162.311 25.67C162.863 25.6774 162.86 24.7622 162.322 24.7585L162.311 24.7622Z" fill="black"/>
<path d="M140.451 80.3059C140.914 79.8391 141.248 80.7616 140.881 81.0469C140.421 81.5286 140.077 80.5875 140.451 80.3059Z" fill="black"/>
<path d="M145.652 124.308C146.253 124.105 146.456 124.308 146.264 124.916C145.656 125.121 145.452 124.918 145.652 124.308Z" fill="black"/>
<path d="M179.055 10.0316C179.54 9.55734 180.04 9.0979 180.537 8.63477C180.598 9.74607 180.582 10.8603 180.488 11.9694C182.486 12.4658 183.082 14.6519 182.882 16.4674C182.926 18.7682 181.474 21.3581 178.962 21.4989C178.644 23.6781 178.114 25.8211 177.38 27.8976C176.772 29.7724 175.046 31.3359 173.023 31.4212C171.241 31.6509 168.914 31.9436 168.236 33.9147C169.914 35.2967 171.767 36.4712 173.349 37.9903C174.138 38.7498 174.494 39.8132 175.064 40.7247C177.821 42.1623 180.852 43.1515 183.341 45.0633C186.632 48.0534 189.992 51.036 192.604 54.6633C196.35 60.2209 198.977 66.4418 201.771 72.5182C203.308 75.6156 204.427 78.8984 206.08 81.9439C206.772 83.1703 207.117 84.556 207.799 85.7898C210.263 89.4949 211.419 93.9855 214.312 97.435C215.383 97.435 216.446 97.535 217.517 97.5721C218.045 97.4535 218.557 97.2744 219.044 97.0385C220.432 97.3559 221.888 97.1348 223.119 96.4198C224.015 95.9464 224.979 95.614 225.976 95.4342C227.191 95.2668 228.378 94.9392 229.507 94.4598L230.744 93.9374C230.77 94.0559 230.819 94.3079 230.841 94.4042C232.619 94.0337 234.461 93.7373 236.009 92.7295L234.372 92.5035C234.601 92.0366 234.742 91.3364 235.398 91.3327C237.68 91.0437 239.963 91.6402 242.245 91.6402C244.527 91.6402 246.691 91.0881 248.914 91.0363C249.037 90.6398 249.155 90.2471 249.285 89.8581C249.655 90.1359 250.026 90.4212 250.396 90.7028C250.089 91.6402 249.911 92.6591 250.348 93.5891C251.26 95.8789 251.46 98.3576 252.297 100.666C253.675 99.4209 254.661 97.8277 255.921 96.4791C258.714 93.5817 258.885 89.306 259.422 85.5564C259.748 84.5264 258.855 83.5927 259.096 82.5627C259.574 80.0432 260.4 77.5979 260.748 75.0525C259.415 77.131 258.436 79.4134 257.451 81.6698C257.101 83.1112 256.255 84.3834 255.061 85.2637C254.899 85.316 254.728 85.3314 254.56 85.3088C254.391 85.2862 254.23 85.2261 254.088 85.133C253.946 85.0399 253.826 84.9161 253.738 84.7707C253.65 84.6253 253.596 84.4621 253.579 84.293C253.464 83.309 253.448 82.3161 253.531 81.3289C253.227 82.0699 252.923 82.8332 252.634 83.5927L251.263 83.0814C251.83 81.5179 252.286 79.9024 253.116 78.4426C253.646 78.4649 254.183 78.4908 254.72 78.5241C255.987 76.0047 257.28 73.5 258.496 70.9546C255.532 71.5215 252.479 71.64 249.526 72.3292C247.869 72.6701 246.191 72.8887 244.513 73.0702C244.126 72.7065 243.812 72.2728 243.586 71.792C245.246 71.3029 246.995 71.3325 248.677 70.9694C252.16 70.0432 255.78 69.995 259.315 69.3429C260.193 69.028 260.9 69.7504 261.634 70.1173C261.823 71.251 263.175 71.9365 262.834 73.1777C262.393 75.6749 261.723 78.1203 261.13 80.5879C260.808 81.9514 261.308 83.326 261.256 84.6968C261.015 85.8084 260.659 86.8792 260.685 88.0314C260.756 89.369 260.144 90.588 259.944 91.8847C259.678 93.7895 258.829 95.5652 257.514 96.9681C256.657 97.8349 255.876 98.7732 255.18 99.7729L254.505 99.2505L254.983 100.184C254.268 101.007 253.527 101.811 252.827 102.648C252.656 103.556 252.875 104.501 252.797 105.431C250.274 107.267 247.595 108.879 244.791 110.247C243.308 111.218 241.549 111.44 239.915 111.985C238.496 112.811 237.128 113.741 235.546 114.238C238.714 114.638 241.923 114.345 245.113 114.412C245.728 114.56 246.617 114.53 246.799 115.305L244.387 115.701C242.323 116.049 240.244 115.66 238.173 115.816C235.55 115.657 232.919 115.746 230.296 115.76C230.609 115.105 231.143 114.58 231.804 114.278C233.116 113.493 234.457 112.722 235.972 112.389C237.636 112.096 238.647 110.47 240.333 110.244C241.964 109.907 243.528 109.302 244.961 108.454C247.051 107.205 249.381 106.283 251.134 104.545C251.408 104.041 251.089 103.456 251.063 102.93C250.446 99.4109 249.538 95.9495 248.347 92.5813C246.517 92.7147 244.705 93.0667 242.868 93.1185C239.74 93.3742 236.702 94.3079 233.768 95.3712C232.516 95.6602 231.211 95.6899 229.992 96.1123C228.232 96.7236 226.287 96.5865 224.583 97.3572C221.396 99.0615 217.628 99.2283 214.101 98.8689C213.238 98.8689 212.764 98.1278 212.363 97.5017C210.988 95.3533 209.774 93.1055 208.732 90.7769C207.932 88.9244 206.583 87.383 205.917 85.4712C203.208 79.4949 200.492 73.5185 197.854 67.5089C196.743 64.9783 195.283 62.6329 194.149 60.132C191.459 54.6522 187.013 50.2801 182.426 46.3416C179.788 44.4557 176.743 43.2404 173.775 41.977C168.588 40.3986 163.323 38.924 157.991 37.8384C156.834 37.5668 155.652 37.4141 154.464 37.3827C151.518 37.4049 148.462 37.2678 145.679 38.4127C142.941 39.2575 140.566 40.9025 138.217 42.4883C136.057 43.8592 134.408 45.8451 132.522 47.5495C129.725 50.7322 127.442 54.3261 125.282 57.9645L124.026 57.1383C126.039 53.487 128.396 50.0366 131.066 46.8344C132.548 45.2523 134.193 43.8073 135.731 42.2734C138.484 40.4209 141.177 38.3386 144.36 37.2567C145.553 36.7936 146.779 36.423 147.987 36.0044C149.747 33.4775 151.755 30.9914 152.541 27.9532L153.378 27.6345L153.86 28.3422C153.559 29.1259 153.349 29.9414 153.234 30.7728C157.776 31.0469 162.256 32.0399 166.609 33.3293C167.224 32.2807 167.917 31.1359 169.173 30.7839C171.122 29.7761 173.882 30.4319 175.275 28.446C176.291 27.001 176.576 25.1929 176.946 23.5071C177.317 21.4322 177.876 19.3833 178.154 17.2899C176.986 17.1707 175.826 16.9764 174.683 16.7082C174.46 16.0561 174.219 15.4151 173.942 14.7815L173.304 15.4299L172.122 14.889C172.863 14.1924 173.875 14.0924 174.82 13.896C174.716 14.3369 174.616 14.7741 174.52 15.215C175.831 15.4151 177.15 15.5855 178.477 15.6633C178.654 13.7849 179.132 11.9249 179.062 10.0316M180.14 14.9705C179.721 16.082 181.089 15.9005 181.759 16.0302C181.516 15.0865 181.149 14.1794 180.666 13.3328C179.985 13.481 180.333 14.4444 180.14 14.9705ZM179.851 17.427C179.684 18.2162 179.51 19.0054 179.395 19.8094C179.903 19.6535 180.345 19.3328 180.65 18.898C180.955 18.4632 181.107 17.9391 181.081 17.4085H179.851M150.333 35.7561C152.619 36.1822 154.975 35.5857 157.272 35.9525C159.966 36.9158 162.83 37.2863 165.575 38.0236C168.021 38.798 170.548 39.276 172.986 40.117C172.245 38.5757 170.666 37.8162 169.418 36.7602C167.613 35.2189 165.312 34.4334 163.03 33.9184C159.721 33.2107 156.398 32.4623 153 32.3585C151.81 33.2183 150.885 34.3957 150.333 35.7561ZM258.451 74.0447L259.166 73.8261C259.535 72.6547 260.238 71.6167 261.189 70.8398C259.337 70.4692 258.84 72.6923 258.451 74.0447ZM257.003 77.0087C257.97 76.5345 258.281 75.4156 258.703 74.5078C257.358 74.3855 257.184 76.0306 257.003 77.0087ZM254.991 81.4141C255.989 80.1894 256.691 78.75 257.04 77.2088C256.184 78.5251 255.496 79.9427 254.991 81.4289V81.4141Z" fill="black"/>
<path d="M119.391 73.2993C119.869 73.6365 119.743 74.1774 119.391 74.5554L119.062 73.9181L119.391 73.2993Z" fill="black"/>
<path d="M160.199 76.4263C160.536 76.7338 160.881 77.0413 161.233 77.3377C160.984 77.7915 160.759 78.2577 160.559 78.7346C160.596 77.938 160.707 77.108 160.199 76.4263Z" fill="black"/>
<path d="M131.218 91.0326C131.781 90.5954 132.277 91.618 131.807 91.9848C131.24 92.4146 130.747 91.3957 131.218 91.0326Z" fill="black"/>
<path d="M155.227 95.3228C155.736 96.1503 155.994 97.1081 155.968 98.0794C155.101 97.3976 155.094 96.312 155.227 95.3228Z" fill="black"/>
<path d="M145.861 70.7617C146.32 71.0507 146.784 71.3508 147.258 71.6287L146.684 71.8584C146.361 71.5213 145.765 71.3249 145.861 70.7617Z" fill="black"/>
<path d="M138.34 105.905C138.396 106.405 138.422 106.913 138.477 107.421L137.988 107.928C138.218 107.278 138.337 106.595 138.34 105.905Z" fill="black"/>
<path d="M140.445 108.161C141.134 108.087 141.152 109.406 140.419 109.191C139.637 109.143 139.589 108.032 140.445 108.161Z" fill="black"/>
<path d="M136.327 152.182C136.853 152.274 137.002 153.075 136.824 153.497C136.094 153.79 135.553 152.419 136.327 152.182Z" fill="black"/>
<path d="M260.563 155.461C261.252 154.853 261.719 156.076 260.933 156.313C260.255 156.794 259.84 155.724 260.563 155.461Z" fill="black"/>
<path d="M152.555 27.9525C152.95 26.3481 153.47 24.7773 154.111 23.2544L154.374 23.5434C154.744 23.9584 155.085 24.403 155.441 24.8365C154.548 25.7998 154.448 27.1966 153.874 28.3415L153.392 27.6338L152.555 27.9525Z" fill="black"/>
<path d="M122.592 58.2719C123.124 57.9624 123.612 57.5809 124.04 57.1382L125.282 57.9681L125.152 58.1978C124.867 58.7017 124.596 59.2168 124.329 59.7355C125.07 59.8466 125.811 59.7799 126.145 58.9944C127.434 59.2168 128.712 59.9355 130.039 59.5094C130.987 59.2378 131.982 59.1696 132.958 59.3094C132.958 59.0315 132.958 58.4757 132.958 58.1978C134.537 58.1608 136.116 58.1447 137.697 58.1497C137.72 58.435 137.768 58.9981 137.794 59.2797C140.091 59.6984 142.577 59.0389 144.756 60.0615C145.263 60.1873 145.785 60.2483 146.308 60.2431H146.601C148.005 60.2431 149.476 60.4913 150.832 59.9911C151.547 59.7725 151.632 58.9166 151.966 58.3572L152.151 58.5017L153.059 59.3057C153.077 59.7206 153.099 60.1393 153.125 60.558L154.029 60.9063C154 60.5913 153.974 60.2764 153.948 59.9652C154.811 60.1764 155.708 60.0837 156.223 59.2649C156.408 59.6354 156.593 60.0059 156.797 60.3765C157.098 59.6623 157.318 58.9166 157.453 58.1534H157.757C158.127 58.6499 158.479 59.1575 158.846 59.654L159.457 59.4539C160.128 60.432 161.354 59.9281 162.051 59.2501C162.221 59.6206 162.399 59.9911 162.577 60.3357C164.181 60.2468 165.982 59.8874 167.375 60.91C167.323 60.6284 167.227 60.0689 167.175 59.7985L167.857 59.9392C168.894 60.5246 170.058 60.369 171.08 59.8318C171.236 59.2872 171.395 58.7462 171.558 58.2053C173.911 58.5498 176.316 58.3683 178.631 59.0019C178.898 59.8059 179.028 60.721 179.606 61.3805C180.495 61.84 181.481 61.4769 182.377 61.2583L182.674 61.5917C182.555 61.9622 182.433 62.3587 182.303 62.744C182.833 63.534 183.159 64.4429 183.252 65.3895C183.559 65.2079 183.87 65.0189 184.185 64.8596L184.263 65.156C183.022 66.5492 184.026 68.2164 184.741 69.5799C185.037 69.1353 185.326 68.6907 185.623 68.2498C186.471 71.8845 187.868 75.3488 189.024 78.8909C189.717 82.0439 190.847 85.0747 191.618 88.2129C192.656 91.0771 193.548 93.9917 194.293 96.9458C195.441 102.956 197.813 108.624 199.654 114.438C199.717 114.908 199.739 115.386 199.765 115.864C197.29 115.864 194.778 115.768 192.355 116.305C190.198 116.96 188.155 117.946 186.301 119.228C186.238 118.913 186.182 118.598 186.127 118.291C185.475 118.68 184.685 118.999 184.348 119.736C184.044 120.258 184.348 120.847 184.441 121.396C183.97 122.448 183.581 123.534 183.277 124.645L182.992 125.131C182.714 125.042 182.44 124.953 182.166 124.871C181.903 125.872 181.695 126.89 181.532 127.917C181.891 127.746 182.254 127.58 182.622 127.417C182.622 127.672 182.585 128.18 182.574 128.432C182.322 131.129 182.755 133.867 182.225 136.542C182.084 138.084 182.133 139.64 182.118 141.192C181.347 142.7 181.944 144.419 181.558 146.009C181.136 147.698 181.051 149.443 180.88 151.17L180.169 151.474C180.791 153.289 181.247 155.179 182.222 156.861C181.851 157.939 181.458 159.129 182.084 160.196C181.714 160.107 181.343 160.029 180.973 159.962C180.957 159.34 181.013 158.719 181.14 158.11C179.287 157.802 177.435 157.947 175.582 157.936C168.083 157.895 160.584 157.965 153.088 157.902C150.902 156.98 148.39 158.273 146.312 157.031C144.656 158.113 142.684 157.35 140.861 157.435C139.039 157.521 137.038 157.88 135.411 156.765C135.389 156.987 135.341 157.428 135.319 157.65C133.837 157.65 132.355 157.606 130.873 157.58C131.699 156.617 132.251 155.283 131.695 154.049C131.273 153.555 130.816 153.092 130.328 152.663C130.372 151.984 130.173 151.311 129.765 150.766C129.261 150.992 128.761 151.222 128.26 151.455C127.99 149.477 126.778 147.828 126.478 145.861C125.144 139.44 124.129 132.959 122.84 126.531C122.492 123.697 121.799 120.91 121.543 118.069C121.66 117.229 121.484 116.374 121.043 115.649C120.685 114.453 120.465 113.22 120.387 111.974C120.439 111.207 120.654 110.377 120.143 109.71C119.427 107.635 119.516 105.327 118.838 103.189C118.238 99.8803 117.064 96.6717 116.678 93.3334C117.049 92.0662 116.215 90.9547 115.956 89.7653C115.659 88.9836 116.563 88.5723 116.964 88.0425L115.9 88.1833C116.193 86.1491 116.041 83.7927 114.64 82.1847C114.496 81.9401 114.615 81.7104 114.992 81.4955L114.277 80.9657C114.314 79.0872 113.855 77.2606 113.707 75.408C113.177 73.2072 113.659 70.9323 113.258 68.7389C113.177 66.9197 113.281 64.9893 114.07 63.322C114.463 63.8778 114.874 64.4335 115.274 64.9856L115.952 64.6151C115.689 64.1927 115.433 63.7703 115.174 63.3516C115.544 63.4295 115.893 63.5147 116.252 63.5999C117.278 62.6921 118.175 61.6214 119.35 60.8989C120.394 60.4246 121.573 60.369 122.61 59.8244C122.61 59.3057 122.61 58.787 122.592 58.2719ZM133.444 58.8907C133.155 59.3353 133.926 59.8022 134.244 59.4168C134.518 58.9685 133.755 58.5091 133.444 58.8907ZM151.995 59.5761C151.491 60.0245 152.284 60.8729 152.696 60.2616C153.211 59.7799 152.455 59.0019 151.995 59.5761ZM129.854 64.6929C131.254 64.3224 132.625 63.8815 133.996 63.4257L134.174 62.7959C132.692 63.1293 130.065 62.5921 129.854 64.6929ZM142.136 63.5814C142.918 63.5814 143.7 63.548 144.481 63.5184C144.481 63.3294 144.481 62.9515 144.481 62.7774C143.696 62.9811 142.258 62.4476 142.147 63.5962M114.437 66.4158C114.596 67.0938 114.107 68.4202 115.178 68.4091C115.107 67.7014 115.548 66.375 114.437 66.4158ZM118.957 66.5936C118.501 67.1568 119.527 67.657 119.883 67.1531C120.328 66.5862 119.309 66.0897 118.957 66.5936ZM125.256 66.5936C124.774 66.5936 124.555 67.4754 125.126 67.5125C125.6 67.5125 125.822 66.627 125.256 66.5936ZM123.774 66.9641C123.336 66.9234 122.766 67.6273 123.362 67.8422C124.055 68.2127 124.792 66.9048 123.774 66.9641ZM114.866 69.2909C114.537 69.5466 114.555 70.4543 115.081 70.4025C115.407 70.1431 115.385 69.2316 114.866 69.2909ZM149.368 69.1538C149.291 69.8319 149.25 70.6359 150.109 70.7359C150.109 70.8841 150.172 71.1768 150.195 71.325L151.38 71.2657C151.354 70.7952 151.332 70.3247 151.31 69.8578L150.461 69.943L149.35 69.1538M147.964 71.3473C148.335 72.2143 148.664 73.1591 147.901 73.9408L148.568 74.6819C148.568 75.2821 148.568 75.8823 148.568 76.4862L149.198 76.3936C148.994 74.341 148.79 72.2847 148.668 70.2283C148.41 70.5828 148.176 70.9541 147.968 71.3399M145.837 70.7544C145.741 71.3065 146.338 71.4955 146.66 71.866L147.234 71.6363C146.76 71.3584 146.297 71.0583 145.837 70.7693M123.888 71.9141C123.855 72.2068 123.822 72.4996 123.796 72.7997C125.085 72.9997 125.885 71.8771 126.819 71.2065C125.785 70.5247 124.792 71.4881 123.888 71.9141ZM119.368 73.3073L119.061 73.9186L119.387 74.567C119.757 74.1965 119.868 73.6481 119.387 73.311M160.195 76.4381C160.687 77.1198 160.591 77.9498 160.565 78.7426C160.766 78.267 160.991 77.802 161.24 77.3495C160.888 77.0531 160.543 76.7456 160.206 76.4381M118.983 77.0087C118.79 77.6089 118.998 77.8164 119.605 77.6311C119.791 77.0284 119.583 76.8209 118.983 77.0087ZM123.725 77.9053C123.977 79.0168 125.096 79.1206 126.041 79.0391C126.042 78.3213 125.878 77.6128 125.563 76.9679C124.874 76.8975 123.292 76.7715 123.711 77.9053M148.957 78.1758C148.62 78.6167 148.709 78.8686 149.224 78.9427C149.555 78.503 149.466 78.2474 148.957 78.1758ZM140.435 80.3173C140.065 80.5989 140.406 81.54 140.865 81.0583C141.236 80.7656 140.899 79.8431 140.435 80.3173ZM173.04 86.553C173.392 88.1351 173.022 89.7913 173.537 91.3474C174.222 89.9098 173.615 88.2129 173.511 86.7012L173.04 86.553ZM131.373 86.9235C131.423 87.8897 131.307 88.8574 131.028 89.7839L131.647 90.2952L131.199 89.5282C131.391 88.6723 131.684 87.7868 131.373 86.9346M118.942 87.483C118.572 87.9906 119.472 88.476 119.809 88.0314C120.18 87.5238 119.279 87.0458 118.942 87.483ZM141.087 88.0017C141.532 88.3004 142.056 88.4591 142.592 88.4574C142.581 88.1882 142.506 87.9254 142.373 87.6909C142.24 87.4564 142.054 87.2568 141.829 87.1088C141.577 87.4052 141.332 87.7016 141.087 88.0017ZM134.029 87.5941C134.066 88.4204 133.914 89.4208 134.696 89.9654C134.529 89.191 135.17 87.6942 134.029 87.5941ZM183.048 89.2318C182.625 89.5801 183.126 90.473 183.626 90.0914C184.041 89.7209 183.544 88.8391 183.048 89.2318ZM183.418 90.8139C183.345 90.9137 183.295 91.0289 183.273 91.1508C183.252 91.2727 183.258 91.398 183.292 91.5171C183.326 91.6362 183.387 91.7459 183.469 91.8379C183.552 91.9299 183.655 92.0016 183.77 92.0477C184.467 91.9365 184.063 90.5026 183.418 90.8139ZM131.176 91.0695C130.706 91.44 131.199 92.4515 131.765 92.0217C132.236 91.6512 131.74 90.6323 131.176 91.0695ZM122.729 91.5957C122.991 92.6033 123.089 93.6468 123.018 94.6857L123.648 95.1155C123.562 93.941 124.229 92.0699 122.729 91.5957ZM155.185 95.36C155.052 96.3493 155.059 97.4349 155.926 98.1166C155.952 97.1453 155.695 96.1876 155.185 95.36ZM148.887 99.2726C148.312 100.384 150.117 99.3245 148.887 99.2726V99.2726ZM121.906 102.022C121.928 102.648 121.928 103.274 121.973 103.9C121.973 103.63 121.973 103.085 121.973 102.811C122.203 102.626 122.436 102.44 122.673 102.27C122.41 102.192 122.151 102.111 121.895 102.022M132.269 101.944C131.784 102.429 132.599 103.211 133.047 102.663C133.511 102.2 132.677 101.485 132.269 101.944ZM137.434 102.315C137.064 102.618 137.453 103.448 137.927 103.174C138.268 102.867 137.901 102.063 137.434 102.315ZM179.161 102.14C179.139 102.996 179.106 103.852 179.113 104.712C179.408 103.883 179.425 102.98 179.161 102.14ZM164.152 104.63C164.289 104.978 164.437 105.33 164.585 105.682C164.055 105.971 163.396 106.112 163.007 106.598C163.055 107.68 163.351 108.954 164.344 109.562C164.433 109.058 164.522 108.558 164.619 108.08C165.404 109.539 165.06 111.336 165.927 112.774C166.325 111.936 166.584 111.039 166.693 110.117L167.857 110.684C167.868 109.793 167.693 108.91 167.342 108.091L166.319 108.261C166.408 107.15 166.623 105.983 166.045 104.982C165.497 104.567 164.785 104.693 164.152 104.656M138.309 105.975C138.299 106.665 138.174 107.349 137.938 107.998L138.427 107.491C138.372 106.983 138.346 106.475 138.29 105.975M133.403 107.479C132.921 107.939 133.718 108.75 134.174 108.243C134.629 107.735 133.855 107.031 133.403 107.479ZM170.788 107.768L170.743 109.91C170.25 109.747 169.761 109.591 169.261 109.439L169.039 108.076C168.683 108.573 168.402 109.12 168.205 109.699C168.994 110.036 169.843 110.399 170.239 111.229C170.547 111.07 170.854 110.91 171.173 110.766C171.221 111.311 170.843 111.681 170.491 112.04C171.506 112 171.832 113.026 172.41 113.667C172.382 112.79 172.089 111.943 171.569 111.236C170.94 110.399 171.451 109.354 172.133 108.739C171.677 108.417 171.225 108.091 170.776 107.768M140.395 108.232C139.546 108.102 139.587 109.213 140.369 109.262C141.11 109.476 141.084 108.15 140.395 108.232ZM134.096 108.902C133.548 109.032 133.681 109.947 134.126 110.14C134.663 110.051 134.589 109.028 134.096 108.902ZM138.475 109.547C138.898 110.358 139.245 111.207 139.513 112.081C139.446 111.425 139.376 110.773 139.328 110.117L138.475 109.547ZM148.924 109.591C148.353 110.703 150.154 109.647 148.924 109.591V109.591ZM161.095 114.219C161.095 115.086 161.095 115.994 161.536 116.776C162.025 116.035 161.984 114.667 161.095 114.219ZM148.946 119.992C148.361 121.085 150.176 120.066 148.946 119.992V119.992ZM180.069 119.929C179.869 120.534 180.071 120.741 180.677 120.551C180.869 119.943 180.667 119.736 180.069 119.929ZM145.119 122.229L145.989 122.137C145.897 122.507 145.808 122.841 145.719 123.196L146.46 123.63C146.53 122.748 146.638 121.833 146.301 120.992C145.78 121.261 145.365 121.697 145.122 122.229M143.663 124.249C143.707 124.856 143.763 125.468 143.826 126.083L144.693 126.209C144.47 125.468 144.822 124.075 143.663 124.249ZM145.656 124.319C145.456 124.919 145.66 125.122 146.267 124.927C146.46 124.319 146.256 124.117 145.656 124.319ZM146.767 125.168C146.643 125.169 146.52 125.194 146.405 125.243C146.29 125.291 146.186 125.362 146.099 125.451C146.011 125.539 145.942 125.645 145.896 125.76C145.849 125.875 145.825 125.999 145.826 126.124C146.234 126.965 147.423 125.538 146.767 125.168ZM127.538 128.384C126.927 129.295 127.097 130.347 127.49 131.303L128.601 131.333C128.212 130.358 127.86 129.377 127.538 128.369M160.832 129.228C160.461 129.717 161.306 130.277 161.666 129.825C162.025 129.373 161.184 128.78 160.832 129.228ZM148.976 130.307C148.446 130.307 148.475 131.207 148.976 131.229C149.476 131.251 149.483 130.307 148.976 130.307ZM127.857 131.911C127.531 132.333 127.79 133.445 128.416 133.352C128.664 132.904 128.416 131.948 127.857 131.911ZM128.427 133.982C128.16 134.467 128.353 135.138 128.646 135.579C129.201 135.427 129.12 133.878 128.427 133.982ZM157.479 137.343C156.901 138.454 158.709 137.398 157.479 137.343V137.343ZM129.361 139.599C128.898 140.066 129.698 140.833 130.146 140.34C130.595 139.847 129.809 139.114 129.361 139.599ZM147.842 139.969C147.66 140.488 147.842 140.677 148.353 140.54C148.531 140.021 148.353 139.832 147.842 139.969ZM166.693 141.64C166.771 142.711 166.668 143.927 167.397 144.812C167.364 143.775 167.931 142.163 166.693 141.64ZM175.656 142.382C175.489 144.234 175.267 146.087 175.586 147.939L175.915 148.439C175.978 146.587 176.008 144.734 175.915 142.882L175.649 142.4M147.694 151.355L148.516 151.726L148.779 151.355C148.683 152.708 150.109 151.218 148.935 151.118C148.987 150.41 148.638 149.773 148.398 149.14C147.895 149.767 147.644 150.56 147.694 151.363M164.304 152.522C164.398 151.627 164.32 150.721 164.074 149.855C162.844 150.359 162.822 152.37 164.304 152.522ZM144.511 150.792C144.14 151.163 144.307 151.978 144.859 152.078C145.637 151.974 145.23 150.44 144.511 150.792ZM140.917 151.489C140.945 152.034 140.945 152.581 140.917 153.126C141.135 152.774 141.372 152.432 141.625 152.104C141.38 151.9 141.139 151.692 140.902 151.489M136.312 152.207C135.537 152.445 136.078 153.815 136.808 153.523C136.986 153.1 136.838 152.3 136.312 152.207ZM141.276 153.578C140.943 154.082 141.762 154.545 142.125 154.167C142.495 153.671 141.621 153.108 141.276 153.578ZM152.996 153.99L152.892 154.82C153.874 154.76 155.141 154.69 155.667 153.708C154.77 153.724 153.877 153.817 152.996 153.986M162.258 153.682L162.725 154.582C163.904 155.134 165.048 154.442 166.06 153.841C164.793 154.03 163.502 153.971 162.258 153.667M167.786 154.249C168.737 154.54 169.751 154.554 170.71 154.29C170.743 154.116 170.814 153.764 170.851 153.586C169.821 153.723 168.657 153.586 167.786 154.249ZM132.306 154.734C132.369 155.968 133.418 154.149 132.306 154.734V154.734ZM134.489 155.824C134.118 155.575 133.748 155.338 133.377 155.112C133.059 155.931 133.077 156.78 133.792 157.372C133.792 157.157 133.818 156.728 133.829 156.513C135.325 156.098 136.905 156.098 138.401 156.513C137.868 155.913 137.497 155.149 136.786 154.738C136.107 155.263 135.322 155.634 134.485 155.824H134.489Z" fill="black"/>
<path d="M272.304 197.329C273.753 195.547 275.602 194.157 277.102 192.431L277.943 193.035C278.221 192.857 278.506 192.664 278.795 192.512L278.577 193.253L279.459 193.335C281.389 193.557 283.305 193.976 285.261 193.865C285.717 194.824 286.254 195.743 286.776 196.677C287.095 197.762 286.839 198.933 287.006 200.052C287.217 201.907 287.317 203.773 287.306 205.639L286.409 205.528C287.929 205.754 287.362 207.648 287.573 208.733L286.487 208.27C286.524 208.881 286.573 209.496 286.598 210.123L286.072 210.182L284.716 210.249C284.935 211.601 285.213 212.942 285.439 214.294C283.316 215.947 281.363 217.785 279.292 219.511C278.807 219.823 278.258 220.501 277.647 220.071C276.896 219.612 276.222 219.038 275.65 218.37C273.619 216.166 271.815 213.763 270.266 211.197C270.266 210.949 270.244 210.704 270.24 210.456L269.714 210.786C268.191 208.652 267.121 206.125 265.135 204.361C265.168 203.794 265.209 203.25 265.25 202.675L266.265 203.005C268.299 201.13 270.607 199.522 272.304 197.31M270.878 202.238C270.426 202.312 270.277 203.205 270.837 203.213C271.296 203.164 271.43 202.242 270.878 202.257V202.238Z" fill="black"/>
<path d="M223.489 202.985C225.772 202.57 228.102 202.863 230.407 202.778C232.967 202.852 235.535 202.655 238.088 202.892C239.362 203.841 241.307 203.293 242.304 204.619C244.364 207.127 246.565 209.551 249.166 211.518C251.018 212.874 252.76 214.452 254.864 215.456C257.695 217.22 260.967 218.258 263.416 220.61C264.527 221.485 264.657 223.007 264.594 224.315C263.831 225.097 262.578 225.134 261.545 225.212C254.001 225.164 246.457 225.286 238.914 225.149C237.213 225.242 236.835 223.315 236.257 222.111C235.739 223.133 235.887 224.927 234.468 225.134C231.015 224.871 227.469 225.694 224.067 224.734C222.715 221.577 223.423 218.002 223.534 214.678C223.904 211.318 223.841 207.931 224.334 204.586L223.323 203.878C223.367 203.656 223.449 203.207 223.493 202.985M230.125 205.916C229.673 205.868 229.106 206.405 229.418 206.846C229.944 207.342 230.922 206.142 230.125 205.916ZM242.66 214.03C242.472 214.63 242.679 214.835 243.282 214.645C243.464 214.037 243.256 213.83 242.66 214.03ZM245.657 222.511C245.087 222.615 244.523 222.726 243.964 222.848C243.931 223.863 244.912 223.63 245.594 223.556L245.616 223.215C246.114 223.52 246.699 223.652 247.28 223.591C247.861 223.529 248.406 223.277 248.829 222.874C247.888 222.196 246.724 222.218 245.657 222.504M238.428 223.378C238.428 224.275 239.373 223.982 239.973 224.056L240.366 223.233L238.428 223.378Z" fill="black"/>
<path d="M114.07 63.3109C115.738 60.2987 119.169 58.3646 122.592 58.272C122.592 58.787 122.592 59.3057 122.611 59.8244C121.584 60.3691 120.388 60.4246 119.35 60.8989C118.176 61.6214 117.279 62.6922 116.253 63.5999C115.882 63.5147 115.534 63.4295 115.174 63.3517C115.434 63.7704 115.689 64.1927 115.952 64.6151L115.274 64.9856C114.874 64.4299 114.463 63.8741 114.07 63.322" fill="black"/>
<path d="M191.648 131.54C191.496 127.895 191.073 123.178 194.571 120.87C194.745 121.645 194.612 122.457 194.2 123.137L193.315 123.015C193.282 124.497 193.511 126.053 192.722 127.379C192.14 128.176 192.663 129.084 192.689 129.973C192.57 130.607 192.07 131.07 191.648 131.54Z" fill="black"/>
<path d="M124.329 59.7354C124.596 59.2167 124.866 58.7017 125.152 58.1978C127.745 58.0385 130.365 58.2867 132.969 58.1978C132.969 58.4794 132.969 59.0351 132.969 59.3093C131.993 59.1695 130.998 59.2377 130.05 59.5094C128.723 59.9355 127.456 59.2167 126.156 58.9944C125.807 59.7799 125.074 59.8391 124.329 59.7354Z" fill="black"/>
<path d="M137.709 58.1567C141.562 58.2715 145.416 58.1159 149.269 58.1567C150.178 58.118 151.088 58.1952 151.977 58.3864C151.644 58.9459 151.559 59.8017 150.844 60.0203C149.488 60.5205 148.017 60.2834 146.612 60.2723C147.109 59.1608 145.349 59.4127 146.32 60.2723C145.797 60.2775 145.275 60.2165 144.767 60.0907C142.589 59.0681 140.102 59.7202 137.805 59.309C137.779 59.0052 137.735 58.442 137.709 58.1567Z" fill="black"/>
<path d="M152.162 58.516C153.859 57.9047 155.7 58.2233 157.464 58.1677C157.329 58.931 157.109 59.6767 156.808 60.3908C156.612 60.0203 156.419 59.6498 156.234 59.2793C155.719 60.0981 154.822 60.1907 153.959 59.9795C153.985 60.2908 154.011 60.6057 154.041 60.9206L153.137 60.5723C153.111 60.1537 153.088 59.735 153.07 59.32L152.162 58.516Z" fill="black"/>
<path d="M157.768 58.1712C162.369 58.2786 166.967 58.0266 171.565 58.2119C171.402 58.7528 171.243 59.2938 171.087 59.8384C170.065 60.3757 168.901 60.5313 167.864 59.9459C167.552 59.7064 167.19 59.5409 166.805 59.462C166.42 59.383 166.022 59.3927 165.641 59.4902C166.156 59.5902 166.678 59.6939 167.197 59.8051C167.249 60.0867 167.345 60.6462 167.397 60.9166C166.004 59.894 164.203 60.2534 162.599 60.3423C162.421 59.9718 162.229 59.6013 162.073 59.2567C161.38 59.9348 160.154 60.4387 159.479 59.4605L158.868 59.6606C158.483 59.1752 158.131 58.6676 157.768 58.1712Z" fill="black"/>
<path d="M133.445 58.8898C133.757 58.5193 134.52 58.9676 134.246 59.4159C133.927 59.8012 133.156 59.3344 133.445 58.8898Z" fill="black"/>
<path d="M178.639 59.0093C180.081 59.3796 181.383 60.164 182.385 61.2657C181.488 61.4843 180.502 61.8474 179.613 61.3879C179.035 60.7284 178.905 59.8133 178.639 59.0093Z" fill="black"/>
<path d="M146.32 60.2498C145.349 59.3977 147.109 59.1383 146.613 60.2498H146.32Z" fill="black"/>
<path d="M151.996 59.576C152.456 59.0017 153.212 59.7797 152.697 60.2614C152.285 60.8727 151.492 60.0243 151.996 59.576Z" fill="black"/>
<path d="M182.682 61.5986C183.42 62.5651 183.941 63.6799 184.208 64.8665C183.893 65.0407 183.582 65.2148 183.275 65.3964C183.182 64.4498 182.856 63.5409 182.326 62.7509C182.441 62.3656 182.567 61.9803 182.682 61.5986Z" fill="black"/>
<path d="M228.34 62.996C228.677 62.3995 229.225 61.7326 230.003 61.9364C230.744 62.3069 231.274 62.9812 231.856 63.5481C232.967 64.6967 234.216 65.7045 235.298 66.8827L234.401 67.0494C232.256 66.7345 231.1 64.6114 229.666 63.2183C228.129 66.0972 226.417 68.8834 224.987 71.8179C224.069 73.5739 223.06 75.2806 221.963 76.9309L221.126 76.0195C222.56 72.985 224.49 70.221 225.883 67.1717C226.169 67.0568 226.461 66.9531 226.754 66.8493C226.621 65.3636 227.673 64.2187 228.34 62.996Z" fill="black"/>
<path d="M116.368 160.167L117.039 160.767C117.057 161.137 117.076 161.508 117.098 161.878C118.547 161.026 120.266 161.474 121.852 161.463C125.587 161.611 129.347 161.093 133.06 161.667C127.958 161.693 122.83 161.693 117.743 161.73C117.969 166.38 117.632 171.071 117.81 175.735C117.258 176.232 116.731 176.758 116.228 177.303C116.376 171.582 116.32 165.872 116.368 160.167Z" fill="black"/>
<path d="M129.854 64.6934C130.066 62.5926 132.689 63.1298 134.175 62.7964L133.997 63.4262C132.626 63.882 131.255 64.334 129.854 64.6934Z" fill="black"/>
<path d="M142.138 63.5923C142.241 62.4437 143.686 62.9772 144.472 62.7734C144.472 62.9624 144.472 63.3403 144.472 63.5145C143.701 63.5441 142.923 63.5849 142.138 63.5923Z" fill="black"/>
<path d="M230.122 205.917C230.919 206.143 229.941 207.343 229.415 206.847C229.103 206.406 229.67 205.868 230.122 205.917Z" fill="black"/>
<path d="M184.285 65.1631C184.73 66.1968 185.241 67.2009 185.645 68.2569C185.349 68.6978 185.06 69.1424 184.763 69.587C184.048 68.2235 183.044 66.5562 184.285 65.1631Z" fill="black"/>
<path d="M114.426 66.4121C115.537 66.3713 115.1 67.6977 115.167 68.4054C114.096 68.4165 114.585 67.0901 114.426 66.4121Z" fill="black"/>
<path d="M183.067 89.1942C183.563 88.8015 184.06 89.6981 183.645 90.0538C183.145 90.4354 182.644 89.5425 183.067 89.1942Z" fill="black"/>
<path d="M167.783 154.249C168.654 153.59 169.817 153.723 170.847 153.586C170.81 153.764 170.74 154.116 170.707 154.29C169.748 154.554 168.734 154.54 167.783 154.249Z" fill="black"/>
<path d="M118.946 66.5897C119.298 66.0858 120.317 66.5897 119.872 67.1491C119.516 67.653 118.49 67.1528 118.946 66.5897Z" fill="black"/>
<path d="M183.44 90.7768C184.085 90.4656 184.488 91.8884 183.792 92.0106C183.677 91.9646 183.574 91.8928 183.491 91.8008C183.408 91.7088 183.347 91.5991 183.313 91.48C183.279 91.3609 183.273 91.2356 183.295 91.1137C183.317 90.9919 183.367 90.8766 183.44 90.7768Z" fill="black"/>
<path d="M125.256 66.6002C125.823 66.6335 125.601 67.5228 125.127 67.5191C124.556 67.482 124.767 66.5891 125.256 66.6002Z" fill="black"/>
<path d="M118.976 76.9966C119.576 76.8088 119.784 77.0163 119.598 77.619C118.991 77.8043 118.783 77.5968 118.976 76.9966Z" fill="black"/>
<path d="M180.059 119.927C180.654 119.735 180.856 119.942 180.666 120.55C180.063 120.74 179.861 120.533 180.059 119.927Z" fill="black"/>
<path d="M123.782 66.9639C124.8 66.9046 124.063 68.2162 123.37 67.842C122.774 67.6197 123.344 66.9231 123.782 66.9639Z" fill="black"/>
<path d="M144.512 150.766C145.223 150.414 145.623 151.948 144.86 152.052C144.308 151.952 144.148 151.133 144.512 150.766Z" fill="black"/>
<path d="M234.411 67.0528L235.308 66.886L235.567 66.8379C237.349 68.6904 239.116 70.6023 241.214 72.0991C242.006 72.0436 242.788 71.8546 243.585 71.7842C243.81 72.265 244.124 72.6987 244.511 73.0625C243.481 73.2699 242.366 73.2922 241.417 73.7701C239.995 76.36 238.883 79.1055 237.438 81.6991C236.093 84.6854 234.215 87.3753 232.662 90.2467C231.962 91.4324 231.125 92.5661 230.761 93.9148L229.524 94.4372C229.454 93.8926 229.294 93.3257 229.524 92.7884C230.191 91.3535 230.999 89.9882 231.936 88.7128C232.114 88.9092 232.306 89.1056 232.484 89.3019C231.91 87.4494 233.562 86.0563 234.289 84.5112C235.267 82.3215 236.697 80.3652 237.601 78.1385C238.195 76.6914 238.91 75.297 239.739 73.9702C240.083 73.4589 240.109 72.829 240.224 72.2473C239.848 72.2917 239.467 72.2917 239.09 72.2473C237.364 70.7431 235.756 69.1165 234.081 67.5456L234.411 67.0528Z" fill="black"/>
<path d="M230.155 68.9491C229.874 68.3674 230.455 67.8561 230.722 67.4004C232.13 68.6787 233.482 70.031 234.994 71.1944C235.835 71.9354 236.817 72.6061 237.38 73.6138C237.354 73.9844 237.113 74.4771 236.706 74.5364C235.535 73.9547 234.679 72.9321 233.682 72.1133C232.504 71.061 231.17 70.1644 230.155 68.9491Z" fill="black"/>
<path d="M114.875 69.2902C115.394 69.2383 115.416 70.1498 115.09 70.4017C114.564 70.4536 114.545 69.5459 114.875 69.2902Z" fill="black"/>
<path d="M149.377 69.1538L150.488 69.943L151.337 69.8578C151.359 70.3246 151.381 70.7952 151.407 71.2657L150.221 71.325C150.199 71.1768 150.155 70.8841 150.136 70.7359C149.258 70.6321 149.299 69.843 149.377 69.1538Z" fill="black"/>
<path d="M147.991 71.3464C148.199 70.9607 148.433 70.5893 148.691 70.2349C148.813 72.2912 149.017 74.3475 149.221 76.4002L148.591 76.4928C148.591 75.8889 148.591 75.2886 148.591 74.6884L147.924 73.9474C148.691 73.1767 148.368 72.2134 147.991 71.3464Z" fill="black"/>
<path d="M173.059 86.541L173.529 86.6892C173.633 88.2009 174.241 89.8978 173.555 91.3354C173.04 89.7793 173.411 88.1231 173.059 86.541Z" fill="black"/>
<path d="M170.836 107.697C171.284 108.019 171.736 108.345 172.192 108.668C171.51 109.283 170.999 110.327 171.629 111.165C172.148 111.872 172.441 112.719 172.47 113.595C171.892 112.954 171.566 111.928 170.551 111.969C170.903 111.598 171.292 111.228 171.232 110.694C170.914 110.839 170.606 110.998 170.299 111.157C169.902 110.327 169.054 109.964 168.265 109.627C168.461 109.048 168.742 108.501 169.098 108.004L169.321 109.368C169.81 109.52 170.299 109.675 170.803 109.838L170.836 107.697Z" fill="black"/>
<path d="M145.107 122.228C145.351 121.695 145.765 121.26 146.286 120.991C146.623 121.832 146.515 122.747 146.445 123.629L145.704 123.195C145.793 122.825 145.882 122.488 145.974 122.136L145.107 122.228Z" fill="black"/>
<path d="M162.256 153.666C163.5 153.97 164.791 154.029 166.057 153.84C165.046 154.426 163.901 155.118 162.723 154.581L162.256 153.666Z" fill="black"/>
<path d="M134.485 155.823C135.325 155.637 136.114 155.269 136.797 154.745C137.508 155.156 137.879 155.919 138.412 156.519C136.917 156.104 135.336 156.104 133.84 156.519C133.84 156.734 133.814 157.164 133.803 157.379C133.088 156.786 133.062 155.938 133.388 155.119C133.755 155.337 134.122 155.575 134.485 155.823Z" fill="black"/>
<path d="M182.322 156.511C182.422 158.338 182.322 160.168 182.322 161.995C181.951 162.217 181.581 162.443 181.188 162.669C181.054 163.366 180.917 164.062 180.817 164.77C180.817 163.766 180.743 162.769 180.776 161.769C180.925 161.38 181.095 160.998 181.273 160.624C180.902 160.642 180.532 160.668 180.143 160.676L179.861 160.105C180.232 160.057 180.569 160.013 180.925 159.976C181.295 160.042 181.666 160.12 182.036 160.209C181.41 159.138 181.799 157.949 182.173 156.874L182.322 156.511Z" fill="black"/>
<path d="M191.38 201.688L192.436 202.206C192.488 203.318 192.606 204.429 192.732 205.541C192.792 206.767 192.799 208.001 192.732 209.246C192.288 208.709 191.847 208.171 191.439 207.612C191.487 205.619 191.406 203.655 191.38 201.688Z" fill="black"/>
<path d="M123.912 71.9061C124.816 71.48 125.809 70.5167 126.843 71.1984C125.909 71.869 125.109 72.9917 123.819 72.7916C123.845 72.4915 123.879 72.1988 123.912 71.9061Z" fill="black"/>
<path d="M228.618 70.9062C230.948 73.0515 233.508 74.9263 235.835 77.0752C236.595 77.6051 235.761 78.7018 235.02 78.2127C234.105 77.1012 232.838 76.4194 231.734 75.5376C230.452 74.4039 229.099 73.3479 227.925 72.1067C228.14 71.6954 228.384 71.3249 228.618 70.9062Z" fill="black"/>
<path d="M244.86 74.888C248.095 74.8102 251.296 74.1173 254.531 74.2174C254.29 74.8102 254.16 75.7587 253.338 75.7328C250.003 76.0292 246.669 76.4738 243.334 76.4219C243.623 75.7476 243.975 74.8546 244.86 74.888Z" fill="black"/>
<path d="M226.131 74.7373C227.68 75.1078 228.724 76.4379 229.958 77.3309C231.322 78.5906 232.789 79.7207 234.215 80.9026C233.926 81.2287 233.641 81.5547 233.363 81.8845C230.507 80.2134 228.224 77.7866 225.608 75.7933C225.779 75.445 225.953 75.0893 226.131 74.7373Z" fill="black"/>
<path d="M131.391 86.8857C131.703 87.749 131.391 88.6346 131.217 89.4793L131.666 90.2463L131.065 89.7572C131.339 88.8261 131.45 87.8545 131.391 86.8857Z" fill="black"/>
<path d="M121.939 101.983C122.195 102.072 122.454 102.154 122.718 102.232C122.48 102.406 122.247 102.602 122.017 102.773C122.017 103.047 122.017 103.591 122.017 103.862C121.962 103.236 121.962 102.61 121.939 101.983Z" fill="black"/>
<path d="M179.191 102.095C179.455 102.935 179.438 103.837 179.143 104.667C179.135 103.807 179.169 102.951 179.191 102.095Z" fill="black"/>
<path d="M138.476 109.546L139.324 110.109C139.372 110.765 139.443 111.417 139.509 112.073C139.242 111.201 138.896 110.355 138.476 109.546Z" fill="black"/>
<path d="M140.917 151.462C141.154 151.666 141.395 151.873 141.639 152.077C141.386 152.406 141.15 152.747 140.932 153.1C140.955 152.554 140.95 152.007 140.917 151.462Z" fill="black"/>
<path d="M141.276 153.578C141.621 153.107 142.492 153.67 142.125 154.167C141.762 154.526 140.943 154.063 141.276 153.578Z" fill="black"/>
<path d="M218.878 79.8239C219.563 78.5156 220.32 77.2465 221.146 76.0225L221.983 76.9339C219.293 81.569 216.385 86.0633 213.632 90.6428C215.277 92.9029 217.337 94.8073 219.052 97.0119C218.566 97.2478 218.053 97.4268 217.526 97.5454C215.962 95.4261 213.821 93.7699 212.453 91.4913C212.016 89.8277 213.291 88.505 214.039 87.16C215.058 85.7817 215.521 83.9366 217.077 83.0103C217.17 81.7283 218.274 80.8947 218.878 79.8239Z" fill="black"/>
<path d="M117.561 118.972C117.976 117.279 119.414 116.119 121.044 115.671C121.485 116.396 121.662 117.25 121.544 118.09C121.292 117.653 121.037 117.227 120.777 116.805C119.936 117.772 119.036 118.768 118.68 120.032C117.635 123.022 118.002 126.23 117.569 129.324C117.142 129.716 116.755 130.151 116.416 130.621C116.416 127.598 116.216 124.53 116.765 121.543C116.765 120.877 117.391 120.606 117.854 120.269C117.632 119.861 117.291 119.446 117.561 118.972Z" fill="black"/>
<path d="M123.718 77.8943C123.284 76.7605 124.866 76.8865 125.57 76.9569C125.885 77.6018 126.049 78.3103 126.048 79.0281C125.088 79.1059 123.97 79.0095 123.718 77.8943Z" fill="black"/>
<path d="M224.135 77.6235C224.792 77.8896 225.39 78.2853 225.891 78.7869C227.762 80.5209 229.774 82.0919 231.727 83.7332C231.727 84.126 231.76 84.5261 231.782 84.9263C231.394 84.9096 231.007 84.87 230.623 84.8077C228.503 82.9552 226.336 81.1878 224.205 79.3686C223.524 78.9314 223.839 78.2052 224.135 77.6235Z" fill="black"/>
<path d="M148.966 78.1641C149.475 78.2357 149.563 78.4913 149.232 78.931C148.717 78.8569 148.629 78.605 148.966 78.1641Z" fill="black"/>
<path d="M241.3 80.728C241.378 80.1204 241.507 79.1497 242.304 79.12C245.52 78.894 248.754 78.9681 251.982 78.9385C251.793 79.4387 251.611 79.9426 251.422 80.4465C248.047 80.5873 244.66 80.3205 241.3 80.728Z" fill="black"/>
<path d="M221.996 81.3501C223.53 82.0133 224.634 83.3175 225.894 84.3698C227.313 85.6258 228.988 86.5743 230.296 87.9637C230.047 88.3564 229.803 88.7529 229.554 89.153C226.805 87.2708 224.216 85.1641 221.815 82.8544C221.274 82.4394 221.878 81.8318 221.996 81.3501Z" fill="black"/>
<path d="M114.642 82.1953C116.042 83.8033 116.194 86.1598 115.901 88.1939L116.965 88.0531C116.564 88.5829 115.66 88.9942 115.957 89.776C116.216 90.9653 117.039 92.0768 116.679 93.344C115.709 92.062 115.864 90.3317 115.431 88.8423C114.808 86.6842 114.542 84.4391 114.642 82.1953Z" fill="black"/>
<path d="M238.885 84.5483C239.159 84.0036 239.326 83.2107 240.067 83.1478C243.401 82.9699 246.736 83.0551 250.07 83.0662C249.874 83.522 249.7 83.9888 249.459 84.4297C247.977 84.9558 246.384 84.6743 244.861 84.6187C242.868 84.5705 240.874 84.615 238.885 84.5483Z" fill="black"/>
<path d="M249.307 89.8495C249.851 87.5635 250.303 85.2441 251.267 83.084L252.638 83.5953C251.774 85.9221 251.122 88.323 250.414 90.6943C250.029 90.409 249.666 90.1237 249.307 89.8495Z" fill="black"/>
<path d="M219.341 86.3858C219.519 86.0671 219.533 85.3854 220.06 85.4928C220.734 85.4076 221.212 85.9708 221.69 86.3524C223.591 88.0605 225.565 89.687 227.618 91.1987C228.433 91.6285 227.685 92.3991 227.399 92.9141C225.869 91.6989 224.143 90.7281 222.801 89.2905C221.727 88.2346 220.497 87.3491 219.341 86.3858Z" fill="black"/>
<path d="M118.961 87.4459C119.298 87.0087 120.191 87.4866 119.828 87.9942C119.49 88.4389 118.583 87.9535 118.961 87.4459Z" fill="black"/>
<path d="M141.107 87.9647C141.352 87.6646 141.596 87.3682 141.848 87.0718C142.074 87.2198 142.26 87.4194 142.393 87.6539C142.526 87.8884 142.601 88.1512 142.612 88.4204C142.076 88.4221 141.552 88.2634 141.107 87.9647Z" fill="black"/>
<path d="M122.771 91.5581C124.271 92.0324 123.604 93.9034 123.689 95.078L123.06 94.6482C123.131 93.6093 123.033 92.5657 122.771 91.5581Z" fill="black"/>
<path d="M134.049 87.5566C135.19 87.6567 134.549 89.1535 134.716 89.9279C133.934 89.3833 134.086 88.3681 134.049 87.5566Z" fill="black"/>
<path d="M236.339 88.7934C236.739 88.1191 237.232 87.2187 238.191 87.4151C241.374 87.5263 244.56 87.467 247.747 87.4151C247.632 87.919 247.51 88.4229 247.376 88.9231C243.691 88.9947 240.012 88.9515 236.339 88.7934Z" fill="black"/>
<path d="M217.261 89.4795C219.873 91.0319 221.952 93.3291 224.323 95.2113C224.768 95.6781 225.434 95.4669 225.994 95.4114C224.997 95.5911 224.033 95.9236 223.137 96.3969C221.251 94.2591 218.78 92.7363 216.905 90.5873L217.261 89.4795Z" fill="black"/>
<path d="M132.299 101.906C132.721 101.446 133.54 102.161 133.077 102.625C132.628 103.188 131.806 102.391 132.299 101.906Z" fill="black"/>
<path d="M137.464 102.269C137.93 102.01 138.297 102.821 137.956 103.129C137.482 103.403 137.1 102.573 137.464 102.269Z" fill="black"/>
<path d="M160.831 129.25C161.183 128.801 162.02 129.361 161.664 129.846C161.309 130.332 160.453 129.739 160.831 129.25Z" fill="black"/>
<path d="M164.181 104.585C164.815 104.623 165.526 104.497 166.075 104.912C166.653 105.912 166.445 107.098 166.349 108.191L167.375 108.005C167.726 108.824 167.901 109.708 167.89 110.599L166.727 110.032C166.617 110.953 166.358 111.851 165.96 112.689C165.093 111.251 165.437 109.454 164.652 107.994C164.555 108.491 164.466 108.991 164.378 109.476C163.385 108.883 163.088 107.624 163.04 106.512C163.429 106.027 164.089 105.886 164.618 105.597C164.467 105.286 164.318 104.934 164.181 104.585Z" fill="black"/>
<path d="M133.452 107.409C133.904 106.96 134.671 107.716 134.223 108.172C133.775 108.628 132.971 107.868 133.452 107.409Z" fill="black"/>
<path d="M127.85 131.933C128.406 131.97 128.658 132.926 128.41 133.374C127.784 133.467 127.524 132.355 127.85 131.933Z" fill="black"/>
<path d="M134.156 108.832C134.649 108.954 134.723 109.98 134.186 110.069C133.741 109.876 133.608 108.961 134.156 108.832Z" fill="black"/>
<path d="M242.657 214.03C243.253 213.83 243.461 214.03 243.279 214.645C242.676 214.835 242.469 214.63 242.657 214.03Z" fill="black"/>
<path d="M120.144 109.732C120.655 110.399 120.44 111.214 120.388 111.996C117.198 112.874 113.626 113.796 111.611 116.653C109.758 120.258 110.188 124.434 109.532 128.324C109.443 128.502 109.258 128.854 109.162 129.032C108.85 128.95 108.543 128.869 108.235 128.795C108.176 125.937 108.412 123.082 108.939 120.273C109.388 118.346 109.754 116.234 111.199 114.767C113.534 112.489 116.716 111.344 119.884 110.814L120.144 109.732Z" fill="black"/>
<path d="M161.099 114.218C161.988 114.667 162.029 116.023 161.54 116.775C161.077 115.993 161.095 115.085 161.099 114.218Z" fill="black"/>
<path d="M164.303 152.495C162.821 152.343 162.844 150.332 164.074 149.828C164.32 150.694 164.398 151.6 164.303 152.495Z" fill="black"/>
<path d="M199.658 114.445C207.313 114.296 214.971 114.422 222.63 114.367C225.687 114.052 228.754 114.663 231.807 114.274C231.146 114.576 230.613 115.101 230.299 115.756C228.363 115.903 226.419 115.903 224.482 115.756C220.777 115.964 217.072 115.86 213.367 115.808C208.832 116.123 204.293 115.508 199.769 115.886C199.743 115.393 199.721 114.915 199.658 114.445Z" fill="black"/>
<path d="M245.113 114.39C246.043 114.253 246.94 114.519 247.844 114.723C249.921 114.759 251.971 115.204 253.875 116.035C255.506 117.272 256.988 118.802 257.758 120.736C259.281 124.857 259.915 129.221 260.863 133.493C261.519 137.372 262.297 141.233 263.06 145.09C264.398 149.818 265.873 154.601 268.559 158.762C270.441 161.211 273.005 162.993 275.347 164.953C277.94 166.769 280.082 169.103 282.227 171.396C284.82 173.775 286.062 177.202 287.414 180.37C288.77 184.768 289.092 189.392 289.852 193.912C289.439 194.419 288.973 194.879 288.463 195.287C287.969 190.863 287.282 186.469 286.403 182.104C286.102 180.692 285.387 179.433 284.846 178.114C283.224 173.801 279.659 170.704 276.41 167.606C273.727 165.483 270.967 163.427 268.555 160.996C267.125 159.603 266.313 157.758 265.369 156.039C264.376 154.245 264.061 152.189 263.227 150.333C261.89 147.143 261.334 143.712 260.634 140.329C259.989 137.643 259.818 134.868 259.152 132.178C258.577 129.955 258.299 127.68 257.669 125.479C257.143 123.626 256.891 121.622 255.791 119.992C254.509 117.847 252.249 116.15 249.689 116.057C247.907 116.005 246.143 115.746 244.368 115.657L246.78 115.26C246.617 114.508 245.728 114.538 245.113 114.39Z" fill="black"/>
<path d="M184.34 119.743C184.677 119.002 185.452 118.687 186.119 118.298C186.174 118.605 186.23 118.92 186.293 119.235C185.577 119.867 184.953 120.597 184.44 121.403C184.351 120.862 184.048 120.265 184.34 119.743Z" fill="black"/>
<path d="M194.573 120.869C196.825 119.079 199.878 118.683 202.668 118.457C202.298 118.572 201.927 118.698 201.557 118.828C201.957 120.821 202.868 122.64 203.628 124.507C203.872 126.06 204.543 127.472 205.24 128.872C205.506 128.461 205.766 128.042 206.029 127.631C207.6 130.31 209.163 133.007 211.12 135.412C212.557 137.464 214.747 138.783 216.877 140.013C219.008 141.243 221.361 141.977 223.572 143.033C227.137 144.767 231.057 145.552 234.784 146.853C237.048 147.294 239.253 148.009 241.546 148.298C244.803 148.668 247.934 149.687 251.09 150.54C251.513 150.662 251.935 150.791 252.361 150.91C253.45 151.292 254.588 151.518 255.74 151.581L255.8 151.025C255.922 150.61 256.055 150.202 256.196 149.798C256.629 150.414 257.067 151.032 257.545 151.618C257.758 151.883 257.984 152.138 258.223 152.381C259.293 153.174 258.76 154.715 259.705 155.601C259.857 154.967 259.956 154.321 260.001 153.67C260.501 154.093 261.039 154.704 261.768 154.411C261.768 153.67 261.824 152.952 261.846 152.225C262.043 152.64 262.217 153.07 262.391 153.507C262.138 153.983 261.923 154.479 261.75 154.989C262.007 155.594 262.342 156.162 262.747 156.679C262.535 157.049 262.324 157.42 262.12 157.79C241.431 157.766 220.741 157.776 200.049 157.82C197.718 157.727 195.336 158.05 193.042 157.498L192.842 158.039L192.031 158.161C191.886 157.816 191.749 157.472 191.616 157.131C191.475 155.908 191.935 154.567 193.254 154.282C193.291 153.882 193.328 153.481 193.372 153.089C193.002 153.026 192.661 152.963 192.309 152.907C192.309 152.581 192.35 152.255 192.372 151.936C192.661 151.865 192.954 151.798 193.25 151.736C193.287 150.888 193.309 150.039 193.324 149.195L191.961 149.61C192.331 148.869 192.728 148.127 193.15 147.438C192.686 147.178 192.253 146.865 191.861 146.505C191.594 145.512 191.627 144.471 191.49 143.463C191.275 139.546 191.383 135.623 191.446 131.71L191.657 131.484C192.079 131.014 192.572 130.539 192.713 129.898C192.687 129.028 192.164 128.12 192.746 127.305C193.535 125.978 193.306 124.407 193.339 122.94L194.224 123.062C194.636 122.383 194.769 121.57 194.595 120.795M260.586 155.386C259.845 155.649 260.279 156.72 260.957 156.238C261.72 156.075 261.253 154.852 260.564 155.46L260.586 155.386Z" fill="black"/>
<path d="M301.235 192.048C302.695 191.907 304.162 191.678 305.636 191.678C307.111 191.678 308.208 192.841 309.001 193.979C307.667 195.501 305.992 196.676 304.555 198.084C303.117 199.492 301.331 200.526 299.905 201.967C298.793 203.078 297.467 203.979 296.218 204.931C294.491 206.405 292.873 208.003 291.375 209.71C290.701 210.288 291.072 211.278 290.972 212.052L290.557 213.253C290.345 211.263 290.353 209.262 290.186 207.273C290.142 205.461 289.445 203.708 289.723 201.885L288.938 201.289C288.652 199.295 288.73 197.272 288.471 195.279C288.981 194.872 289.447 194.411 289.86 193.905C293.725 193.875 297.561 193.249 301.235 192.048Z" fill="black"/>
<path d="M202.666 118.457C215.234 118.064 227.827 118.438 240.406 118.272C242.763 118.231 245.115 118.512 247.476 118.364L247.642 118.868C248.261 118.249 249.232 118.457 249.958 118.776C251.214 119.291 252.722 119.624 253.485 120.862C254.082 121.873 254.819 122.814 255.304 123.889C255.582 125.208 255.86 126.53 256.149 127.853C255.779 128.261 255.386 128.676 255.001 129.079L254.797 129.28C254.533 128.946 254.266 128.62 253.997 128.301C254.187 125.803 253.434 123.324 251.885 121.354C251.123 120.678 250.216 120.187 249.233 119.921C248.25 119.655 247.218 119.62 246.22 119.82C240.955 120.024 235.675 119.917 230.406 119.909C221.277 120.002 212.147 119.809 203.022 119.995C203.926 122.588 205.108 125.052 206.023 127.631C205.76 128.042 205.5 128.461 205.234 128.872C204.537 127.479 203.866 126.06 203.622 124.507C202.862 122.655 201.951 120.821 201.551 118.827C201.918 118.698 202.288 118.572 202.666 118.457Z" fill="black"/>
<path d="M143.663 124.247C144.823 124.073 144.471 125.474 144.693 126.207L143.826 126.081C143.759 125.466 143.704 124.855 143.663 124.247Z" fill="black"/>
<path d="M182.159 124.878C182.433 124.96 182.707 125.049 182.985 125.138L183.271 124.652C183.015 125.908 182.822 127.179 182.567 128.439C182.567 128.187 182.604 127.698 182.615 127.424C182.247 127.587 181.884 127.754 181.525 127.924C181.688 126.901 181.896 125.879 182.159 124.878Z" fill="black"/>
<path d="M256.15 127.854C256.791 129.988 256.891 132.229 257.425 134.393C257.658 135.571 258.107 136.727 258.077 137.943C257.807 138.624 257.506 139.287 257.221 139.962C256.569 136.838 255.81 133.745 255.298 130.595C255.072 131.729 254.928 132.878 254.776 134.026C254.672 133.608 254.565 133.193 254.453 132.785C254.061 133.178 253.673 133.575 253.29 133.978C253.538 132.088 253.761 130.195 253.998 128.302C254.269 128.62 254.536 128.947 254.798 129.28C254.717 129.758 255.591 130.306 255.517 129.532L255.002 129.08C255.387 128.676 255.765 128.261 256.15 127.854Z" fill="black"/>
<path d="M109.168 129.031C109.257 128.854 109.443 128.502 109.539 128.324C109.365 131.769 109.609 135.226 109.502 138.676C109.172 139.743 108.694 140.758 108.29 141.803C108.023 138.694 107.849 135.56 108.216 132.455C108.325 131.238 108.337 130.013 108.249 128.794C108.55 128.868 108.857 128.95 109.168 129.031Z" fill="black"/>
<path d="M127.539 128.382C127.861 129.375 128.213 130.357 128.602 131.346L127.491 131.317C127.098 130.353 126.927 129.301 127.539 128.382Z" fill="black"/>
<path d="M254.816 129.28L255.019 129.08L255.534 129.532C255.59 130.306 254.716 129.758 254.816 129.28Z" fill="black"/>
<path d="M116.427 130.606C116.766 130.136 117.152 129.702 117.579 129.31C117.894 134.549 117.513 139.799 117.783 145.041C117.942 148.091 117.661 151.14 117.802 154.189C117.171 154.89 116.687 155.71 116.379 156.601C116.123 151.885 116.46 147.161 116.379 142.44C116.486 138.509 116.334 134.563 116.427 130.606Z" fill="black"/>
<path d="M148.972 130.328C149.495 130.328 149.524 131.243 148.972 131.251C148.42 131.258 148.442 130.339 148.972 130.328Z" fill="black"/>
<path d="M253.289 133.978C253.669 133.573 254.057 133.175 254.452 132.785C254.563 133.192 254.671 133.607 254.775 134.026C254.493 136.479 254.526 139.05 253.478 141.332C253.645 142.277 253.533 143.237 253.57 144.193C254.612 146.82 256.679 148.939 257.539 151.655C257.061 151.069 256.623 150.451 256.19 149.836C256.049 150.239 255.916 150.647 255.794 151.062C254.788 149.501 253.883 147.877 253.085 146.201C252.989 147.803 252.741 149.392 252.344 150.947C251.918 150.81 251.496 150.68 251.073 150.577C251.499 147.524 251.751 144.445 252.363 141.421C252.915 138.961 253.037 136.456 253.289 133.978Z" fill="black"/>
<path d="M248.198 169.75C248.637 170.101 249.024 170.513 249.347 170.973C248.576 174.745 248.002 178.558 247.494 182.366C248.235 183.685 249.458 184.641 250.399 185.816C252.489 188.298 254.949 190.462 256.794 193.148C258.228 195.171 260.462 196.386 262.1 198.217C263.211 199.665 264.245 201.181 265.253 202.693C265.212 203.252 265.171 203.804 265.138 204.378C263.341 203.059 262.3 201.044 260.996 199.325C258.939 197.313 256.453 195.668 254.871 193.219C253.697 191.459 252.048 190.099 250.688 188.498C249.443 187.265 248.532 185.719 247.142 184.638C245.883 190.992 245.064 197.439 243.619 203.756C243.196 204.065 242.759 204.354 242.307 204.619C241.311 203.293 239.365 203.841 238.091 202.893C239.505 202.771 240.929 202.8 242.337 202.978C242.852 201.262 242.948 199.462 243.356 197.724C244.293 193.426 244.741 189.05 245.545 184.73C246.464 179.743 247.087 174.697 248.198 169.75Z" fill="black"/>
<path d="M128.421 134.004C129.114 133.901 129.195 135.449 128.639 135.601C128.347 135.16 128.154 134.49 128.421 134.004Z" fill="black"/>
<path d="M257.221 139.962C257.506 139.287 257.806 138.624 258.077 137.942C258.947 140.755 259.399 143.678 260.126 146.527C260.555 148.476 261.311 150.336 261.822 152.259C261.8 153 261.759 153.715 261.745 154.445C261.004 154.741 260.477 154.13 259.977 153.704C259.932 154.354 259.833 155 259.681 155.634C258.755 154.749 259.288 153.207 258.199 152.415C259.058 152.722 259.911 153.041 260.77 153.363C260.174 151.433 259.24 149.613 258.869 147.616C258.277 145.078 257.754 142.518 257.221 139.962Z" fill="black"/>
<path d="M108.283 141.803C108.687 140.759 109.165 139.743 109.494 138.676C109.494 144.545 109.554 150.418 109.461 156.287C109.035 154.33 109.268 152.326 109.202 150.358C108.879 150.429 108.557 150.499 108.238 150.577C107.886 148.88 108.072 147.15 108.023 145.434C108.046 144.215 107.949 142.974 108.283 141.803Z" fill="black"/>
<path d="M129.354 139.621C129.802 139.15 130.603 139.91 130.14 140.362C129.676 140.814 128.891 140.087 129.354 139.621Z" fill="black"/>
<path d="M147.835 139.988C148.35 139.851 148.524 140.04 148.346 140.559C147.824 140.696 147.653 140.507 147.835 139.988Z" fill="black"/>
<path d="M181.552 146.019C181.922 144.426 181.341 142.707 182.111 141.203C182.482 143.333 182.289 145.501 182.311 147.65C182.311 150.614 182.348 153.578 182.311 156.516L182.204 156.886C181.23 155.212 180.774 153.315 180.151 151.499L180.863 151.195C181.044 149.454 181.13 147.709 181.552 146.019Z" fill="black"/>
<path d="M166.687 141.659C167.924 142.181 167.357 143.793 167.39 144.83C166.661 143.945 166.764 142.729 166.687 141.659Z" fill="black"/>
<path d="M175.649 142.403L175.916 142.884C176.001 144.737 175.972 146.59 175.916 148.442L175.586 147.942C175.26 146.119 175.483 144.244 175.649 142.403Z" fill="black"/>
<path d="M191.291 146.909C191.358 145.798 191.128 144.605 191.48 143.519C191.603 144.527 191.569 145.568 191.851 146.561C192.243 146.921 192.676 147.234 193.14 147.495C192.718 148.202 192.318 148.925 191.951 149.666L193.314 149.251C193.314 150.096 193.277 150.944 193.24 151.793C192.944 151.857 192.651 151.923 192.362 151.993C192.34 152.311 192.318 152.637 192.299 152.963C192.651 153.019 193.003 153.082 193.362 153.145C193.318 153.538 193.281 153.938 193.244 154.338C191.925 154.623 191.465 155.964 191.606 157.187C191.491 159.977 191.921 162.797 191.399 165.564C191.176 159.347 191.365 153.126 191.291 146.909Z" fill="black"/>
<path d="M147.694 151.354C147.644 150.552 147.895 149.759 148.398 149.131C148.639 149.765 148.987 150.402 148.935 151.11L148.779 151.347L148.516 151.718L147.694 151.354Z" fill="black"/>
<path d="M108.239 150.565C108.557 150.487 108.88 150.417 109.202 150.347C109.269 152.325 109.035 154.33 109.462 156.275C109.534 157.632 109.534 158.993 109.462 160.35L108.909 160.721C109.121 160.916 109.288 161.154 109.399 161.419C109.509 161.685 109.561 161.971 109.55 162.259C109.55 171.821 109.576 181.388 109.521 190.951C109.399 191.295 109.276 191.64 109.15 191.988C108.78 191.788 108.391 191.588 108.017 191.399C107.931 183.367 108.061 175.326 107.991 167.294C108.094 161.729 107.913 156.13 108.239 150.565Z" fill="black"/>
<path d="M128.261 151.476C128.761 151.243 129.262 151.013 129.765 150.787C130.173 151.332 130.373 152.005 130.329 152.684C130.816 153.113 131.273 153.576 131.696 154.07C132.252 155.304 131.696 156.637 130.873 157.601C132.355 157.627 133.837 157.664 135.319 157.671C135.342 157.449 135.39 157.008 135.412 156.786C137.039 157.897 139.025 157.527 140.862 157.456C142.7 157.386 144.656 158.134 146.312 157.052C148.391 158.297 150.903 157.001 153.089 157.923C142.8 158.101 132.515 157.864 122.229 158.068C120.79 157.925 119.341 157.925 117.902 158.068C117.713 158.675 117.513 159.283 117.268 159.872C118.654 160.187 120.08 160.087 121.488 160.094C140.957 160.052 160.426 160.052 179.895 160.094L180.177 160.665C180.548 160.665 180.918 160.632 181.307 160.613C181.129 160.984 180.959 161.354 180.811 161.758C177.476 161.447 174.112 161.788 170.762 161.636C158.2 161.655 145.636 161.655 133.07 161.636C129.365 161.05 125.597 161.58 121.862 161.432C120.277 161.432 118.558 160.995 117.109 161.847C117.087 161.476 117.068 161.106 117.05 160.735L116.379 160.135C116.379 158.949 116.401 157.768 116.379 156.586C116.687 155.694 117.171 154.874 117.802 154.174C117.802 154.989 117.824 155.811 117.802 156.634C118.635 156.442 119.488 156.347 120.343 156.348C123.934 156.348 127.52 156.4 131.11 156.371C129.683 155.068 128.689 153.36 128.261 151.476Z" fill="black"/>
<path d="M148.937 151.084C150.111 151.184 148.685 152.673 148.781 151.321L148.937 151.084Z" fill="black"/>
<path d="M152.996 153.97C153.877 153.802 154.771 153.709 155.668 153.692C155.142 154.671 153.874 154.741 152.893 154.804L152.996 153.97Z" fill="black"/>
<path d="M262.367 153.541C263.456 156.505 265.223 159.18 267.183 161.647C268.665 163.641 270.888 164.845 272.656 166.538C275.249 168.82 278.18 170.854 280.218 173.711L279.043 174.374C277.691 172.963 276.472 171.41 274.86 170.269C271.974 168.12 269.529 165.43 266.561 163.4C265.145 161.666 264.093 159.665 262.793 157.842H262.115C262.318 157.472 262.53 157.101 262.741 156.731C262.336 156.213 262.001 155.645 261.744 155.041C261.911 154.525 262.119 154.023 262.367 153.541Z" fill="black"/>
<path d="M191.592 157.187C191.725 157.528 191.863 157.872 192.007 158.217L192.819 158.095C192.928 159.042 192.824 160.002 192.515 160.903C193.967 160.318 195.542 160.533 197.065 160.492C198.939 160.47 200.814 160.492 202.685 160.659C206.483 160.344 210.295 160.581 214.101 160.518C217.213 160.518 220.329 160.385 223.434 160.662C227.476 160.34 231.537 160.599 235.587 160.511C238.473 160.536 241.363 160.381 244.242 160.666C247.714 160.433 251.199 160.433 254.672 160.666C257.939 160.525 261.244 160.296 264.497 160.751C264.369 161.301 264.124 161.817 263.779 162.263C265.261 165.494 266.191 168.932 267.914 172.063C269.325 175.372 271.456 178.31 272.786 181.656C273.675 183.912 275.531 185.568 276.769 187.617C277.854 189.429 279.251 191.185 279.459 193.364L278.577 193.282L278.795 192.541C278.506 192.712 278.221 192.886 277.943 193.064L277.102 192.46L277.536 191.789C276.595 190.459 275.746 189.069 274.864 187.713C273.753 185.998 272.271 184.512 271.496 182.6C269.944 178.958 267.791 175.631 266.135 172.033C264.334 169.036 263.912 165.398 261.867 162.537C261.4 161.796 260.411 162.126 259.696 162.07C256.676 162.241 253.641 161.807 250.637 162.263C250.311 165.194 249.94 168.121 249.347 171.011C249.025 170.551 248.638 170.139 248.199 169.788C248.569 167.276 249.106 164.779 249.188 162.23C245.031 161.959 240.863 162.033 236.705 162.178C232.459 162.033 228.184 161.981 223.96 162.219C223.882 164.045 223.545 165.857 223.571 167.691C223.797 172.878 223.256 178.065 222.852 183.252C222.752 184.734 223.204 186.191 222.985 187.665C222.841 189.051 222.293 190.388 222.378 191.8C222.63 195.602 222.378 199.41 222.5 203.215L223.489 203.015C223.445 203.238 223.363 203.686 223.319 203.908C222.613 203.729 221.88 203.673 221.155 203.745C220.54 199.744 221.263 195.661 220.855 191.641C220.729 190.292 221.27 189.014 221.37 187.687C221.563 185.965 221.218 184.242 221.396 182.523C221.766 179.581 221.603 176.594 222.026 173.675C222.463 170.851 221.815 167.987 222.248 165.153C222.396 164.116 222.548 163.082 222.782 162.067C216.802 162.107 210.818 161.937 204.842 162.152C200.866 161.948 196.887 162.078 192.907 162.1C192.704 176.576 192.989 191.059 192.733 205.539C192.607 204.427 192.489 203.316 192.437 202.204L191.381 201.685C191.229 193.679 191.336 185.664 191.296 177.654C191.414 173.623 191.151 169.584 191.385 165.561C191.907 162.797 191.477 159.977 191.592 157.187Z" fill="black"/>
<path d="M181.206 162.67C181.577 162.444 181.947 162.218 182.34 161.996C182.34 169.206 182.373 176.416 182.303 183.626C180.691 184.527 178.813 184.238 177.053 184.264C157.539 184.234 138.026 184.227 118.512 184.242C117.716 184.216 116.46 184.167 116.352 183.152C116 181.218 116.308 179.24 116.237 177.287C116.741 176.742 117.267 176.216 117.819 175.72C117.864 178.117 117.853 180.536 117.819 182.919C120.146 182.757 122.48 182.714 124.811 182.789C129.379 182.971 133.951 182.593 138.52 182.882C142.099 182.708 145.682 182.756 149.265 182.882C152.844 182.648 156.43 182.774 160.009 182.882C162.355 182.708 164.704 182.756 167.049 182.785C171.577 183.126 176.13 182.382 180.647 183.019C181.04 176.946 180.695 170.844 180.836 164.76C180.936 164.064 181.084 163.367 181.206 162.67Z" fill="black"/>
<path d="M280.2 173.711C282.56 175.882 283.564 178.976 284.683 181.862C284.875 182.259 284.66 182.666 284.475 183.022L283.927 184.03C283.653 182.24 282.712 180.695 282.074 179.02C281.345 177.298 280.316 175.719 279.036 174.356L280.2 173.711Z" fill="black"/>
<path d="M283.927 184.049L284.475 183.042C284.698 183.085 284.899 183.204 285.044 183.379C285.189 183.554 285.268 183.774 285.268 184.001C285.583 186.476 286.38 188.873 286.465 191.378C286.465 193.156 286.954 194.905 286.776 196.691C286.254 195.757 285.716 194.839 285.261 193.879C284.916 190.593 284.586 187.295 283.927 184.049Z" fill="black"/>
<path d="M109.141 191.981C109.267 191.633 109.389 191.288 109.512 190.944C109.615 197.884 109.278 204.819 109.33 211.759C109.46 212.411 108.96 212.841 108.537 213.241C108.462 214.116 108.431 214.994 108.445 215.872C108.056 211.755 107.496 207.591 108.174 203.475C107.741 201.433 108.026 199.347 107.974 197.283C108.007 195.312 107.974 193.345 108.007 191.377C108.382 191.581 108.763 191.781 109.141 191.981Z" fill="black"/>
<path d="M116.697 194.089C117.916 194 119.135 193.885 120.362 193.9C139.139 193.837 157.913 193.9 176.679 193.874C178.354 193.874 180.047 193.759 181.692 194.137C182.359 195.989 182.004 197.975 182.063 199.898C182.063 203.355 182.089 206.816 182.063 210.273C182.233 214.96 181.544 219.672 182.348 224.33C181.607 224.648 180.258 225.756 179.877 224.43L180.64 224.245C180.64 223.763 180.67 223.285 180.681 222.811C165.119 222.544 149.558 222.9 133.971 222.651C135.491 222.447 137.024 222.363 138.557 222.399C152.177 222.399 165.805 222.436 179.425 222.362L180.125 221.318C180.34 220.881 180.457 220.403 180.466 219.917C180.577 211.799 180.466 203.678 180.581 195.56C177.924 195.323 175.264 195.46 172.604 195.397C158.28 195.363 143.952 195.397 129.624 195.371C125.727 195.556 121.825 195.226 117.931 195.397C117.931 199.713 118.031 204.041 117.835 208.364C117.653 208.805 117.464 209.25 117.257 209.691L116.683 209.532C116.153 206.719 116.712 203.874 116.49 201.051C116.616 198.72 116.245 196.371 116.697 194.089Z" fill="black"/>
<path d="M288.929 201.296L289.714 201.893C289.425 203.716 290.133 205.468 290.177 207.28C290.34 209.27 290.333 211.271 290.548 213.26L290.963 212.06C291.3 215.765 291.207 219.511 291.333 223.234C291.152 226.332 290.455 229.781 287.88 231.812C286.795 232.849 285.238 232.923 283.86 233.271C283.675 232.819 283.49 232.375 283.315 231.93C284.797 231.497 286.65 231.397 287.573 230C288.08 229.292 288.684 228.64 289.055 227.847C289.695 225.559 289.961 223.181 289.84 220.807C290.159 218.403 289.536 216.013 289.596 213.608C289.618 209.485 289.114 205.398 288.929 201.296Z" fill="black"/>
<path d="M270.878 202.255C271.43 202.255 271.296 203.163 270.837 203.23C270.277 203.226 270.426 202.329 270.878 202.255Z" fill="black"/>
<path d="M191.458 207.58C191.866 208.139 192.307 208.691 192.751 209.214C192.788 212.374 192.725 215.538 192.751 218.702C192.546 220.185 192.478 221.683 192.547 223.178C192.221 222.93 191.892 222.682 191.58 222.437C191.01 220.955 191.351 219.232 191.325 217.661C191.577 214.297 191.025 210.929 191.458 207.58Z" fill="black"/>
<path d="M117.26 209.677C117.464 209.236 117.656 208.791 117.838 208.351C117.829 210.099 117.944 211.846 118.182 213.578L117.727 214.112C117.848 214.275 117.971 214.442 118.097 214.612C117.797 214.897 117.501 215.187 117.208 215.483C116.886 213.512 116.311 211.522 116.708 209.518L117.26 209.677Z" fill="black"/>
<path d="M286.486 208.284L287.572 208.747C287.728 212.081 287.802 215.446 287.998 218.791C288.095 221.99 287.579 225.178 286.479 228.184C286.005 229.073 285.06 229.592 284.137 229.914C284.404 229.466 284.66 229.017 284.923 228.569L283.719 228.677C285.653 227.71 285.942 225.412 286.249 223.515C286.787 219.091 286.475 214.623 286.071 210.177L286.598 210.118C286.572 209.525 286.524 208.895 286.486 208.284Z" fill="black"/>
<path d="M108.539 213.256L109.491 213.174C109.976 215.864 110.273 218.732 111.803 221.088C113.303 222.656 115.419 223.512 117.523 223.908C117.558 224.311 117.584 224.718 117.601 225.131L117.46 225.472C114.8 224.76 111.995 223.756 110.295 221.455C109.34 219.733 108.712 217.848 108.442 215.898C108.429 215.016 108.461 214.134 108.539 213.256Z" fill="black"/>
<path d="M117.187 215.484C117.479 215.187 117.776 214.898 118.076 214.613C118.687 215.698 118.928 216.973 119.68 217.981C120.621 219.033 121.985 219.574 123.322 219.93C125.719 220.671 128.243 220.748 130.714 221.041C133.307 221.438 135.938 221.171 138.55 221.226C138.55 221.515 138.55 222.097 138.55 222.39C137.017 222.353 135.483 222.437 133.963 222.642C129.569 222.831 125.23 221.949 121.058 220.641C120.076 220.231 119.193 219.617 118.465 218.84C117.727 217.877 117.472 216.643 117.187 215.484Z" fill="black"/>
<path d="M192.734 218.702C192.882 220.892 192.552 223.222 193.56 225.26C194.342 226.657 195.631 227.939 197.283 228.161C201.359 228.832 205.531 228.458 209.655 228.532C220.276 228.514 230.897 228.514 241.519 228.532C251.589 228.532 261.667 228.476 271.73 228.832C275.713 228.435 279.726 228.81 283.72 228.699L284.924 228.591C284.661 229.039 284.405 229.488 284.138 229.936C282.749 230.484 281.145 230.147 279.692 230.144C269.566 230.236 259.444 229.943 249.31 230.021C233.379 230.021 217.447 230.092 201.515 230.021C199.01 229.947 196.253 230.021 194.182 228.38C192.304 227.039 191.589 224.675 191.566 222.452C191.878 222.704 192.207 222.952 192.533 223.193C192.462 221.693 192.529 220.19 192.734 218.702Z" fill="black"/>
<path d="M138.55 221.236C147.924 221.177 157.301 221.236 166.679 221.199C171.162 221.27 175.649 221.066 180.125 221.318L179.425 222.363C165.805 222.437 152.177 222.381 138.557 222.4C138.553 222.122 138.55 221.525 138.55 221.236Z" fill="black"/>
<path d="M245.654 222.511C246.721 222.218 247.877 222.196 248.826 222.881C248.403 223.284 247.858 223.536 247.277 223.598C246.696 223.66 246.111 223.528 245.613 223.222C245.621 223.041 245.643 222.689 245.654 222.511Z" fill="black"/>
<path d="M243.96 222.864C244.519 222.741 245.071 222.63 245.653 222.526C245.653 222.704 245.62 223.056 245.612 223.23L245.59 223.571C244.908 223.63 243.926 223.864 243.96 222.864Z" fill="black"/>
<path d="M238.426 223.385L240.367 223.233L239.967 224.055C239.371 223.974 238.418 224.281 238.426 223.385Z" fill="black"/>
<path d="M118.152 224.253C137.419 224.253 156.685 224.253 175.952 224.253C177.265 224.21 178.58 224.27 179.883 224.434C180.254 225.761 181.602 224.653 182.354 224.334C182.688 225.953 183.147 227.669 184.437 228.829C186.719 231.148 190.113 231.619 193.196 231.941C209.179 231.767 225.171 231.896 241.158 231.837C250.421 231.811 259.684 232.015 268.946 231.952C273.733 231.878 278.52 232.096 283.311 231.952C283.489 232.397 283.682 232.841 283.856 233.293C280.766 233.908 277.62 233.156 274.508 233.46C264.997 233.527 255.486 233.46 245.979 233.367C230.047 233.367 214.115 233.374 198.183 233.386C196.33 233.241 194.478 233.015 192.625 233.434C190.696 233.193 188.788 232.809 186.915 232.285C185.291 231.527 183.818 230.481 182.566 229.199C181.658 228.265 181.584 226.891 181.054 225.764C161.317 225.676 141.572 225.764 121.832 225.713C120.35 225.661 118.893 225.783 117.452 225.472L117.593 225.131C117.778 224.831 117.963 224.538 118.152 224.253Z" fill="black"/>
<path d="M71.784 149.643C71.9877 149.465 73.944 151.277 74.0293 151.384C74.7703 152.31 75.3038 153.403 76.0745 154.318C77.8085 157.22 79.887 160.039 80.4798 163.448C81.2542 166.041 80.3205 168.605 80.0204 171.188C79.7462 173.559 80.8392 176.275 81.2394 178.661C82.4511 186.153 82.7064 193.769 81.9989 201.325C81.6914 204.878 81.1579 208.406 80.6466 211.933C80.1353 215.46 80.0908 219.865 78.8978 223.263C78.0752 225.601 81.4172 227.087 80.7503 229.376C80.0686 230.188 78.7903 230.281 77.7862 230.388C73.9403 230.796 69.8277 230.388 65.9595 230.388C55.8113 230.355 45.4592 230.462 35.2368 230.588C25.6739 230.707 15.7961 231.522 6.28144 230.681C4.89573 230.558 2.30216 230.31 2.02428 228.547C1.93507 227.929 2.09381 227.301 2.46586 226.8C2.83791 226.299 3.39307 225.965 4.01021 225.871C10.2544 225.33 16.5313 225.275 22.784 225.708C29.342 225.708 35.9186 226.342 42.4655 225.764C41.1465 219.217 40.6129 212.481 41.3539 205.831C42.9296 196.994 46.6795 188.688 52.2655 181.662C54.6997 178.579 57.0488 175.923 58.3233 172.088C60.1981 166.445 58.9273 159.935 58.6234 154.126C59.6609 154.652 60.3759 155.041 61.1392 155.915C61.469 156.286 62.6694 158.42 63.1474 158.42C65.6446 157.594 68.0529 156.516 70.5576 155.741C70.9059 153.707 71.3208 151.695 71.7617 149.68C71.7606 149.676 71.7603 149.672 71.7609 149.668C71.7614 149.664 71.7627 149.66 71.7648 149.656C71.7669 149.653 71.7697 149.65 71.773 149.648C71.7763 149.645 71.78 149.644 71.784 149.643Z" stroke="#020202" stroke-width="4" stroke-miterlimit="10"/>
</svg>
