<svg width="33" height="29" viewBox="0 0 33 29" fill="none" xmlns="http://www.w3.org/2000/svg">
<path fill-rule="evenodd" clip-rule="evenodd" d="M2.00201 0C0.897014 0 0 0.790454 0 1.7653V10.5866C0 11.5614 0.897014 12.3518 2.00201 12.3518H12.002C13.106 12.3518 14.002 11.5614 14.002 10.5866V1.7653C14.002 0.790454 13.106 0 12.002 0H2.00201ZM2.00201 15.8807C0.897014 15.8807 0 16.6694 0 17.6442V26.4672C0 27.4403 0.897014 28.2308 2.00201 28.2308H12.002C13.106 28.2308 14.002 27.4403 14.002 26.4672V17.6442C14.002 16.6694 13.106 15.8807 12.002 15.8807H2.00201ZM20.002 0C18.898 0 18.002 0.790454 18.002 1.7653V10.5866C18.002 11.5614 18.898 12.3518 20.002 12.3518H30.002C31.107 12.3518 32.002 11.5614 32.002 10.5866V1.7653C32.002 0.790454 31.107 0 30.002 0H20.002ZM20.002 15.8807C18.898 15.8807 18.002 16.6694 18.002 17.6442V26.4672C18.002 27.4403 18.898 28.2308 20.002 28.2308H30.002C31.107 28.2308 32.002 27.4403 32.002 26.4672V17.6442C32.002 16.6694 31.107 15.8807 30.002 15.8807H20.002Z" fill="#206EF6"/>
<path fill-rule="evenodd" clip-rule="evenodd" d="M2.00201 0C0.897014 0 0 0.790454 0 1.7653V10.5866C0 11.5614 0.897014 12.3518 2.00201 12.3518H12.002C13.106 12.3518 14.002 11.5614 14.002 10.5866V1.7653C14.002 0.790454 13.106 0 12.002 0H2.00201ZM2.00201 15.8807C0.897014 15.8807 0 16.6694 0 17.6442V26.4672C0 27.4403 0.897014 28.2308 2.00201 28.2308H12.002C13.106 28.2308 14.002 27.4403 14.002 26.4672V17.6442C14.002 16.6694 13.106 15.8807 12.002 15.8807H2.00201ZM20.002 0C18.898 0 18.002 0.790454 18.002 1.7653V10.5866C18.002 11.5614 18.898 12.3518 20.002 12.3518H30.002C31.107 12.3518 32.002 11.5614 32.002 10.5866V1.7653C32.002 0.790454 31.107 0 30.002 0H20.002ZM20.002 15.8807C18.898 15.8807 18.002 16.6694 18.002 17.6442V26.4672C18.002 27.4403 18.898 28.2308 20.002 28.2308H30.002C31.107 28.2308 32.002 27.4403 32.002 26.4672V17.6442C32.002 16.6694 31.107 15.8807 30.002 15.8807H20.002Z" fill="black" fill-opacity="0.2"/>
</svg>
