<svg width="254" height="231" viewBox="0 0 254 231" fill="none" xmlns="http://www.w3.org/2000/svg">
<path d="M169.512 81.5863C169.938 82.4118 170.503 83.2002 170.649 84.1373C170.505 85.2359 170.251 86.3172 169.891 87.365C168.639 91.54 167.695 95.8436 165.831 99.8055C165.154 101.497 163.415 102.296 161.818 102.932C161.774 102.563 161.69 101.822 161.649 101.453C161.599 101.964 161.558 102.468 161.531 102.999C159.034 104.14 156.409 104.968 153.918 106.126C149.422 108.118 144.408 108.626 140.013 110.862C138.257 111.725 136.322 112.036 134.427 112.439C132.197 112.889 130.178 114.07 127.911 114.357C125.644 114.645 123.489 115.233 121.246 115.477C120.264 115.528 119.554 114.486 118.566 114.641C113.603 115.849 108.284 116.38 103.3 114.98C101.66 114.567 99.9171 114.161 98.601 113.017C96.703 111.498 95.0147 109.59 92.6903 108.707C91.5502 108.254 90.4878 107.445 89.2055 107.516C83.5486 107.401 77.8883 107.658 72.2381 107.36C72.2381 106.806 72.2077 106.254 72.2381 105.706C73.3377 103.608 74.5117 101.548 75.7061 99.501C76.5396 99.0076 77.2833 98.3761 77.9052 97.6334C78.5819 96.8248 79.7221 96.8045 80.6119 96.385C81.4408 95.8369 82.1242 95.0858 83.0174 94.6223C83.9411 94.7711 84.7937 95.1873 85.7241 95.397C86.4853 95.2922 87.2195 95.0147 87.9909 94.9065C88.9856 94.8016 89.7468 95.5831 90.6231 95.9215C91.5975 95.9621 92.599 95.3091 93.5193 95.8639C94.7711 96.5406 96.2056 96.2192 97.559 96.2496C98.4826 97.2477 98.9326 98.7736 100.242 99.3454C101.467 99.8698 102.12 101.108 102.949 102.072C106.01 101.979 109.072 102.212 112.084 102.769C113.674 103.04 115.129 103.862 116.732 104.018C120.917 101.788 124.653 98.7668 128.997 96.8214C132.499 94.7745 136.268 92.9949 139.167 90.1123C141.935 88.3428 145.112 87.0368 147.487 84.7294C148.793 71.2942 149.669 57.8184 150.965 44.3799C151.953 47.3843 153.387 50.1992 154.47 53.1765C156.28 56.8644 157.721 60.7281 159.768 64.2975C163.165 69.968 166.081 75.9226 169.512 81.5863ZM118.952 113.461C118.326 110.754 118.086 107.878 116.922 105.378C112.687 103.781 108.179 103.034 103.656 103.182C104.424 104.407 105.577 105.395 106.024 106.816L104.803 107.438C100.952 107.665 97.0887 107.411 93.2283 107.499C95.688 108.903 97.6977 110.92 99.9273 112.635C105.875 115.447 112.706 114.855 118.952 113.461ZM78.5345 99.0409C85.1117 99.2946 91.6889 99.1322 98.2694 99.1627C97.8161 98.5402 97.4777 97.8094 96.8654 97.3188C95.7421 97.4643 94.5579 97.8533 93.526 97.1767C92.6125 96.5609 91.5941 97.1936 90.6164 97.1767C89.6386 97.1597 89.033 96.4019 88.3326 95.891C86.7154 96.9669 84.8207 96.5677 83.1324 95.9248C82.615 96.5824 81.967 97.1258 81.2293 97.5206C80.4915 97.9154 79.68 98.1531 78.8458 98.2187C78.7781 98.4353 78.6225 98.8413 78.5345 99.0409Z" fill="#020202"/>
<path d="M214.44 98.8413C214.44 99.3522 214.413 99.8563 214.406 100.377H214.365C214.389 99.8563 214.416 99.3353 214.44 98.8413Z" fill="#020202"/>
<path d="M212.45 126.649C212.45 127.35 212.474 128.053 212.504 128.754H212.514C212.514 128.053 212.491 127.35 212.45 126.649ZM213.682 129.904C213.717 129.832 213.731 129.752 213.723 129.672C213.714 129.593 213.684 129.517 213.634 129.454C213.672 130.313 213.705 131.169 213.743 132.029C213.727 131.318 213.707 130.61 213.682 129.904ZM214.473 97.5864C214.473 97.9992 214.45 98.412 214.44 98.8247L214.49 97.6033L214.473 97.5864Z" fill="#020202"/>
<path d="M253.892 42.0729C254.231 47.7569 253.74 53.4612 252.827 59.0741C252.542 63.0326 251.703 66.92 251.341 70.8717C250.739 77.4557 249.484 84.0498 248.635 90.6101C247.911 96.1926 247.931 104.384 246.236 109.79C246.157 109.801 246.078 109.801 245.999 109.79C245.617 109.729 245.414 109.408 245.302 108.944C245.24 108.468 245.216 107.987 245.231 107.506C245.231 106.491 245.278 105.243 245.329 104.905C247.51 89.5533 249.624 74.1705 251.669 58.7561C252.451 52.8014 253.236 46.7859 252.627 40.8244C252.018 34.863 249.876 28.8373 245.576 24.6488C245.346 24.4255 245.102 24.2055 244.849 23.9924L245.278 23.5356C247.596 25.7044 250.015 27.934 251.155 30.979C252.41 34.5585 253.693 38.2294 253.892 42.0729Z" fill="#020202"/>
<path d="M246.01 109.783C245.462 112.409 245.228 115.095 244.697 117.724C244.21 123.981 243.968 130.251 243.973 136.535C243.553 141.823 243.912 147.135 243.746 152.437C243.861 157.887 243.526 163.331 243.472 168.782C243.039 172.804 243.229 176.837 243.229 180.87C243.229 182.071 242.89 183.35 242.792 184.555C242.694 185.759 242.613 186.879 242.508 188.053C242.286 190.574 242.226 193.106 242.329 195.635C242.39 197.039 242.799 198.365 242.633 199.763C242.498 200.927 242.21 202.236 241.567 203.237C241.217 203.769 240.792 204.248 240.305 204.658L240.234 204.574C240.376 203.457 240.759 198.217 240.989 196.22C240.651 194.224 241.263 192.16 241.209 190.13C241.747 179.087 242.224 168.037 242.4 156.974C242.823 151.54 242.417 146.093 242.599 140.649C242.752 129.565 242.599 118.35 245.204 107.493C245.189 107.974 245.214 108.456 245.279 108.934C245.384 109.401 245.594 109.722 246.01 109.783Z" fill="#020202"/>
<path d="M244.839 23.1023L245.275 23.5151L244.846 23.9719C244.595 23.7621 244.331 23.5591 244.061 23.3662C242.031 21.9452 239.561 21.14 237.399 22.1618C235.596 23.0144 234.55 24.8887 233.616 26.6514L223.916 44.9891C220.75 50.9742 217.552 57.0439 216.016 63.6413C214.805 68.8517 214.663 74.2447 214.534 79.5971L213.672 114.445C213.527 120.326 213.382 126.207 213.235 132.089C213.103 137.323 213.79 142.612 213.79 147.886L213.821 149.02C213.872 150.867 213.919 152.714 213.959 154.561C214.072 159.208 214.185 163.852 214.298 168.494C214.433 174.025 214.575 179.556 214.724 185.089C214.754 186.189 214.907 192.451 215.062 197.607V197.966H214.805V197.607C214.663 194.958 214.35 192.32 213.868 189.711C213.371 186.794 213.492 183.756 213.404 180.803C213.313 177.758 213.127 174.669 213.127 171.603C213.046 168.941 212.806 166.227 212.887 163.568C212.958 161.156 213.11 158.753 212.748 156.338C212.66 154.937 212.748 153.543 212.718 152.142C209.121 151.96 206.865 148.627 205.339 145.744C204.242 140.954 203.924 136.021 203.116 131.176C202.361 131.419 201.603 131.663 200.842 131.853C198.359 128.72 196.261 125.289 193.629 122.274C192.201 120.661 191.234 118.732 190.124 116.912C185.33 109.536 181.435 101.626 176.973 94.0574C174.104 88.7828 171.424 83.4067 168.328 78.2675C165.402 72.6647 162.161 67.2412 159.244 61.6384C157.448 57.6529 155.401 53.7756 153.919 49.6547C152.721 47.3878 152.028 44.918 151.307 42.4719C150.762 39.4573 151.006 36.3819 151.06 33.3369C149.505 32.6726 147.794 32.4593 146.124 32.7211C143.999 33.6752 142.064 35.3669 139.597 35.2789C138.197 35.4379 136.918 34.7207 135.842 33.9256C133.802 32.2178 132.021 30.2235 130.554 28.0048C128.781 28.3127 126.666 28.6307 125.32 27.1217C123.794 25.0917 123.032 22.0095 124.914 19.9322C123.323 17.2932 122.545 14.0147 123.526 11.0205C124.474 7.3225 127.248 4.38916 130.293 2.22383C133.984 -0.533577 139.127 -0.52681 143.272 1.15132C142.913 1.6419 142.551 2.13587 142.202 2.63322C142.619 2.17309 143.031 1.71296 143.451 1.25621C146.983 3.30989 149.676 6.55449 151.693 10.0529C153.344 13.223 154.961 16.762 158.361 18.4198C159.45 17.8301 160.507 17.1841 161.528 16.4846L162.134 17.0529C161.795 16.5759 162.11 16.0616 162.871 16.038C165.338 15.6489 167.692 14.7252 170.206 14.5967C173.955 14.1534 177.717 13.7305 181.5 13.7914C182.931 13.8557 184.342 13.5005 185.776 13.5749C189.995 13.6933 194.235 13.2873 198.443 13.832C201.803 14.0147 205.139 14.4613 208.482 14.7929C211.019 14.8809 213.482 15.6184 216.02 15.7064C218.99 15.9365 221.886 16.7214 224.867 16.8872C227.696 17.0157 230.47 17.6044 233.261 18.0476C235.843 18.7006 238.708 18.66 240.955 20.2773C242.098 21.1434 243.276 21.9689 244.453 22.7843L244.839 23.1023ZM214.186 68.5776C214.345 64.7105 214.463 61.4456 214.423 61.4422C210.079 60.9448 205.684 61.2899 201.323 61.1918C197.987 61.1918 194.661 61.0599 191.332 61.158C192.648 65.4311 194.519 69.5046 195.953 73.7372C198.66 80.6324 201.059 87.6596 204.073 94.433C205.312 98.0024 206.668 101.538 208.062 105.04C209.378 108.345 210.431 112.118 212.173 115.21C212.647 112.446 212.44 109.384 212.569 106.572C212.697 103.71 212.829 100.849 212.965 97.9889C213.229 92.3387 213.489 86.6886 213.682 81.035C213.699 80.1486 213.976 73.8048 214.186 68.5776ZM212.697 151.104C212.65 146.925 212.606 142.74 212.538 138.562C212.285 135.873 212.179 133.172 212.22 130.472C212.22 129.9 212.22 129.325 212.19 128.753C212.19 128.053 212.153 127.349 212.112 126.649V125.36C212.112 124.656 212.112 123.956 212.075 123.252C210.18 124.859 208.813 127.048 206.662 128.344C205.768 128.923 204.929 129.565 204.07 130.188C205.085 134.289 205.21 138.545 205.995 142.706C206.371 146.418 208.986 150.122 212.697 151.104ZM157.458 19.3333C156.125 18.5301 154.922 17.5297 153.888 16.3661C152.102 17.8413 150.613 20.4464 148.025 20.3212C146.181 19.7461 144.023 18.7006 143.809 16.5218C143.525 14.2989 141.779 12.5971 139.692 11.961C138.095 13.4666 138.65 15.6827 138.582 17.6078C137.613 18.2682 136.446 18.5763 135.277 18.4807C132.908 19.7562 130.983 21.7152 128.669 23.0888C131 26.6548 133.406 30.2817 136.732 33.0324C137.906 34.0474 139.594 34.2402 141.069 33.8951C142.791 33.3437 144.205 32.1561 145.836 31.405C147.704 31.1343 149.588 31.5606 151.388 32.058C151.865 27.2943 154.213 22.8215 157.458 19.3333ZM134.861 17.2154C133.846 15.6827 132.743 14.1704 132.046 12.4787C129.397 13.5275 127.113 15.2733 124.755 16.8263C125.695 18.7094 126.757 20.53 127.932 22.2768C130.246 20.5919 132.401 18.6905 134.861 17.2255V17.2154ZM125.902 26.0729C126.852 27.027 128.229 27.1251 129.498 26.9356C129.015 25.9374 128.414 25.0003 127.708 24.1444C127.147 24.7771 125.692 25.0105 125.902 26.0729ZM126.842 23.0279C126.527 22.3151 126.13 21.6418 125.658 21.0216C125.012 21.9588 124.924 23.0516 125.049 24.1647C125.691 23.8537 126.296 23.4736 126.856 23.0313L126.842 23.0279Z" fill="#020202"/>
<path d="M240.221 204.57L240.292 204.655C239.704 205.157 239.036 205.556 238.316 205.836C237.903 205.995 234.476 206.763 234.418 206.174C234.693 208.948 235.494 211.638 235.998 214.379C236.503 217.119 236.702 220.005 235.789 222.641C234.875 225.276 232.656 227.597 229.892 227.939C227.127 228.281 224.106 226.092 224.14 223.307C219.958 226.856 214.051 227.584 208.55 227.408C203.048 227.232 197.513 226.315 192.076 227.161C192.479 224.021 194.901 221.494 197.577 219.805C200.254 218.117 203.272 217.028 205.941 215.333C208.968 213.401 211.41 210.68 213.005 207.463C214.487 204.465 214.907 201.241 214.822 197.99H215.079C215.194 201.691 215.313 204.733 215.384 204.733L240.221 204.57Z" fill="#020202"/>
<path d="M241.141 203.863C241.141 203.884 241.141 203.894 241.141 203.894H241.117L241.141 203.863Z" fill="#020202"/>
<path d="M212.44 124.683V125.972C212.413 125.553 212.383 125.136 212.346 124.717L212.44 124.683Z" fill="#020202"/>
<path d="M213.458 124.866L213.539 126.527C213.488 125.972 213.461 125.418 213.451 124.859L213.458 124.866Z" fill="#020202"/>
<path d="M213.949 135.744L213.868 135.72C213.839 134.265 213.803 132.81 213.76 131.355C213.804 132.817 213.868 134.279 213.949 135.744Z" fill="#020202"/>
<path d="M65.7234 154.011C65.9095 153.849 67.6959 155.503 67.7737 155.601C68.4504 156.447 68.9376 157.445 69.6413 158.281C71.2247 160.93 73.1227 163.505 73.6641 166.617C74.3712 168.986 73.5186 171.327 73.2445 173.685C72.9942 175.851 73.9923 178.331 74.3577 180.509C75.4642 187.351 75.6973 194.305 75.0512 201.205C74.7704 204.45 74.2832 207.671 73.8163 210.892C73.3494 214.113 73.3088 218.135 72.2194 221.238C71.4683 223.373 74.5201 224.729 73.9111 226.82C73.2885 227.561 72.1213 227.646 71.2044 227.744C67.6925 228.116 63.937 227.744 60.4048 227.744C51.1379 227.714 41.6849 227.812 32.3503 227.927C23.6179 228.035 14.598 228.779 5.9096 228.011C4.64424 227.9 2.27592 227.673 2.02217 226.063C1.94071 225.498 2.08566 224.925 2.4254 224.467C2.76514 224.01 3.27209 223.705 3.83563 223.62C9.53746 223.124 15.2693 223.074 20.9789 223.471C26.9674 223.471 32.9728 224.049 38.9512 223.522C37.7467 217.543 37.2595 211.392 37.9362 205.319C39.375 197.25 42.7992 189.666 47.9001 183.25C50.1229 180.435 52.2679 178.009 53.4318 174.507C55.1438 169.355 53.9833 163.41 53.7058 158.105C54.6532 158.585 55.3062 158.941 56.0031 159.739C56.3042 160.078 57.4004 162.026 57.8369 162.026C60.1172 161.272 62.3164 160.287 64.6035 159.58C64.9216 157.723 65.3005 155.886 65.7031 154.045C65.7021 154.041 65.7018 154.038 65.7023 154.034C65.7028 154.03 65.704 154.027 65.7059 154.024C65.7078 154.021 65.7104 154.018 65.7134 154.016C65.7164 154.014 65.7198 154.012 65.7234 154.011Z" stroke="#020202" stroke-width="4" stroke-miterlimit="10"/>
</svg>
