<svg width="76" height="32" viewBox="0 0 76 32" fill="none" xmlns="http://www.w3.org/2000/svg">
<path d="M34.2842 13.4054V17.1858C34.2842 17.4795 34.2461 17.663 34.1673 17.739C34.0885 17.815 33.8983 17.8517 33.594 17.8517H31.3712C31.0669 17.8517 30.8767 17.815 30.7979 17.739C30.7191 17.663 30.681 17.4795 30.681 17.1858V5.14979C30.681 4.85616 30.7191 4.67265 30.7979 4.59662C30.8767 4.52059 31.0669 4.48389 31.3712 4.48389H36.4145C37.2188 4.48389 37.8846 4.56778 38.409 4.73819C38.9335 4.9086 39.4199 5.19436 39.8655 5.60071C40.7731 6.42392 41.2269 7.53026 41.2269 8.91974C41.2269 10.2699 40.8546 11.3526 40.11 12.1601C39.3519 12.9886 38.1617 13.4028 36.5368 13.4028H34.2842V13.4054ZM34.2842 10.6133H35.4825C36.1781 10.6133 36.67 10.4849 36.9553 10.2306C37.2922 9.92908 37.4634 9.50699 37.4634 8.95644C37.4634 7.83437 36.8058 7.27333 35.4934 7.27333H34.2869V10.6133H34.2842Z" fill="white"/>
<path d="M46.1777 13.6176C46.1967 14.9808 46.8706 15.6651 48.1967 15.6651C48.5689 15.6651 48.8705 15.6126 49.1042 15.5078C49.3379 15.4029 49.5417 15.2273 49.7183 14.9782C49.7727 14.8996 49.8325 14.8497 49.895 14.8314C49.9602 14.813 50.1069 14.8025 50.3379 14.8025H52.1639C52.422 14.8025 52.6014 14.8314 52.7019 14.8864C52.8025 14.9415 52.8541 15.0411 52.8541 15.1853C52.8541 15.3295 52.7889 15.5235 52.6612 15.7726C52.5335 16.0216 52.384 16.2366 52.2155 16.4201C51.2753 17.4321 49.9384 17.9381 48.2075 17.9381C46.4739 17.9381 45.1152 17.4478 44.1261 16.4699C43.2539 15.6022 42.8164 14.4801 42.8164 13.1011C42.8164 12.1232 43.0528 11.2318 43.5256 10.427C44.3843 8.96411 45.8897 8.23267 48.0418 8.23267C49.9493 8.23267 51.346 8.84351 52.2346 10.0626C52.8704 10.9304 53.1883 11.9371 53.1883 13.0801C53.1883 13.3082 53.1448 13.455 53.0552 13.5206C52.9682 13.5861 52.778 13.6176 52.4873 13.6176H46.1777ZM50.0852 11.7588C49.971 11.3079 49.7428 10.954 49.4004 10.697C49.058 10.4401 48.6396 10.3116 48.1477 10.3116C47.6396 10.3116 47.2211 10.4375 46.8951 10.6944C46.5663 10.9487 46.3598 11.3053 46.2701 11.7614H50.0852V11.7588Z" fill="white"/>
<path d="M59.7533 10.5476V17.0912C59.7533 17.4268 59.7153 17.6365 59.6365 17.7204C59.5577 17.807 59.3675 17.8489 59.0632 17.8489H57.1149C56.8105 17.8489 56.6203 17.807 56.5415 17.7204C56.4627 17.6339 56.4247 17.4242 56.4247 17.0912V10.5476H56.0198C55.7154 10.5476 55.5252 10.5056 55.4464 10.4191C55.3676 10.3326 55.3296 10.1229 55.3296 9.78991V8.26148C55.3296 7.92591 55.3676 7.71618 55.4464 7.63228C55.5252 7.54577 55.7154 7.50382 56.0198 7.50382H56.4247V5.15219C56.4247 4.81662 56.4627 4.60689 56.5415 4.52299C56.6203 4.43648 56.8105 4.39453 57.1149 4.39453H59.0632C59.3675 4.39453 59.5577 4.43648 59.6365 4.52299C59.7153 4.60951 59.7533 4.81924 59.7533 5.15219V7.50382H60.9598C61.2642 7.50382 61.4544 7.54577 61.5332 7.63228C61.612 7.7188 61.65 7.92853 61.65 8.26148V9.78991C61.65 10.1255 61.612 10.3352 61.5332 10.4191C61.4544 10.5056 61.2642 10.5476 60.9598 10.5476H59.7533Z" fill="white"/>
<path d="M67.3156 12.1834L63.2559 5.36447C63.1282 5.15474 63.063 5.00531 63.063 4.91617C63.063 4.78246 63.1146 4.69071 63.2152 4.63565C63.3157 4.5806 63.495 4.55438 63.7532 4.55438H66.1091C66.3808 4.55438 66.5466 4.57273 66.6063 4.60681C66.6661 4.64089 66.7585 4.77198 66.8808 4.9922L69.1552 9.08723L71.367 5.00006C71.4893 4.77198 71.5817 4.64089 71.6415 4.60419C71.7013 4.57011 71.867 4.55176 72.1387 4.55176H74.443C74.7012 4.55176 74.8805 4.57797 74.981 4.63303C75.0816 4.68808 75.1332 4.77984 75.1332 4.91355C75.1332 5.00268 75.0761 5.1495 74.9593 5.35136L68.0981 17.3717C67.9759 17.5945 67.8835 17.723 67.8183 17.7571C67.753 17.7911 67.59 17.8095 67.3264 17.8095H65.0819C64.8374 17.8095 64.6798 17.7938 64.6037 17.7623C64.4624 17.6994 64.3917 17.5945 64.3917 17.4477C64.3917 17.3638 64.4515 17.2196 64.5738 17.0099L67.3156 12.1834Z" fill="white"/>
<path d="M34.8629 23.7712L34.6483 23.8787C34.5097 23.9495 34.4173 23.9862 34.3711 23.9862C34.314 23.9862 34.2461 23.939 34.1727 23.8394C33.9499 23.5536 33.6755 23.4094 33.3467 23.4094C33.1239 23.4094 32.9336 23.4802 32.776 23.6192C32.6184 23.7607 32.5369 23.9311 32.5369 24.1356C32.5369 24.3244 32.6103 24.4843 32.7597 24.6101C32.9065 24.7386 33.1972 24.888 33.6238 25.0611C34.2325 25.3075 34.6619 25.5146 34.9091 25.6903C35.4064 26.0389 35.6564 26.5161 35.6564 27.1217C35.6564 27.7588 35.4145 28.2831 34.9336 28.6921C34.4934 29.0643 33.9662 29.2505 33.3467 29.2505C32.9173 29.2505 32.5206 29.1561 32.1511 28.9621C31.7842 28.7707 31.488 28.5059 31.2652 28.1704C31.1266 27.9554 31.0587 27.8059 31.0587 27.7168C31.0587 27.6093 31.162 27.5123 31.3685 27.4258L31.6239 27.3262C31.7625 27.2711 31.8549 27.2423 31.9011 27.2423C31.9853 27.2423 32.0777 27.334 32.1782 27.5176C32.4364 27.9973 32.8304 28.2385 33.3548 28.2385C33.7353 28.2385 34.0287 28.1153 34.2352 27.8715C34.3928 27.6775 34.4744 27.4573 34.4744 27.2135C34.4744 26.9644 34.3983 26.7625 34.2488 26.6131C34.0994 26.4637 33.8086 26.2985 33.3793 26.1202C32.7543 25.8659 32.306 25.6405 32.0288 25.4465C31.6266 25.1659 31.4256 24.7596 31.4256 24.2274C31.4256 23.6611 31.6375 23.2049 32.0614 22.8641C32.4473 22.5521 32.8929 22.3975 33.3956 22.3975C33.7434 22.3975 34.0776 22.4814 34.3928 22.6491C34.708 22.8169 34.9417 23.0345 35.0966 23.2993C35.1347 23.3701 35.151 23.4304 35.151 23.475C35.1482 23.5772 35.0531 23.6742 34.8629 23.7712Z" fill="white"/>
<path d="M41.6479 23.58V28.6529C41.6479 28.8364 41.6235 28.9518 41.5773 28.9964C41.5283 29.0435 41.4115 29.0645 41.2186 29.0645H40.9088C40.724 29.0645 40.6072 29.0409 40.5583 28.9964C40.5094 28.9492 40.4876 28.8364 40.4876 28.6529V23.58H40.2105C40.0203 23.58 39.9007 23.5564 39.8518 23.5118C39.8029 23.4647 39.7811 23.3519 39.7811 23.1658V22.9587C39.7811 22.7752 39.8056 22.6598 39.8518 22.6126C39.898 22.5654 40.0175 22.5444 40.2105 22.5444H40.4876V20.6149C40.4876 20.4314 40.5121 20.316 40.5583 20.2688C40.6072 20.2243 40.7213 20.2007 40.9088 20.2007H41.2186C41.4088 20.2007 41.5283 20.2243 41.5773 20.2688C41.6235 20.316 41.6479 20.4288 41.6479 20.6149V22.5444H42.4088C42.599 22.5444 42.7185 22.568 42.7674 22.6126C42.8136 22.6572 42.8381 22.7725 42.8381 22.9587V23.1658C42.8381 23.3493 42.8136 23.4647 42.7674 23.5118C42.7185 23.5564 42.6017 23.58 42.4088 23.58H41.6479Z" fill="white"/>
<path d="M50.2645 22.4001C51.3297 22.4001 52.2128 22.7724 52.9166 23.5196C53.5253 24.1619 53.8296 24.9327 53.8296 25.824C53.8296 26.8648 53.4356 27.7247 52.6476 28.3985C51.9819 28.97 51.1775 29.2558 50.2428 29.2558C49.5961 29.2558 48.9928 29.0985 48.4331 28.7813C47.8624 28.4536 47.4222 28.0079 47.1152 27.4416C46.8407 26.9409 46.7021 26.3851 46.7021 25.7716C46.7021 24.8226 47.0717 24.0072 47.8135 23.3282C48.4901 22.7095 49.308 22.4001 50.2645 22.4001ZM50.2346 23.4121C49.4765 23.4121 48.8705 23.6926 48.4168 24.2537C48.0608 24.6889 47.8842 25.2289 47.8842 25.8791C47.8842 26.5738 48.1206 27.148 48.5907 27.6015C49.0363 28.0315 49.5906 28.2465 50.2591 28.2465C51.0362 28.2465 51.6585 27.9686 52.1259 27.4128C52.4764 26.9881 52.6503 26.4637 52.6503 25.8345C52.6503 25.1005 52.4112 24.508 51.9357 24.057C51.4819 23.6245 50.9167 23.4121 50.2346 23.4121Z" fill="white"/>
<path d="M59.957 23.2494C60.2532 22.8981 60.5032 22.6648 60.7043 22.5521C60.9054 22.4393 61.169 22.3843 61.4977 22.3843C61.7505 22.3843 61.9706 22.421 62.1526 22.4918C62.3347 22.5626 62.4271 22.6517 62.4271 22.7592C62.4271 22.8064 62.389 22.8981 62.3157 23.0345L62.1635 23.3019C62.101 23.4198 62.0494 23.4959 62.0113 23.5326C61.9733 23.5693 61.9244 23.585 61.8591 23.585C61.8157 23.585 61.7586 23.564 61.6852 23.5247C61.5956 23.4723 61.4706 23.4487 61.313 23.4487C61.0847 23.4487 60.87 23.5037 60.669 23.6138C60.4679 23.7239 60.3157 23.8655 60.2152 24.0385C60.0413 24.3505 59.9543 24.8827 59.9543 25.6325V28.65C59.9543 28.8336 59.9299 28.9489 59.8837 28.9935C59.8348 29.0407 59.7206 29.0617 59.5331 29.0617H59.2234C59.0332 29.0617 58.9136 29.0381 58.8674 28.9935C58.8185 28.9489 58.7968 28.8336 58.7968 28.65V22.9584C58.7968 22.7749 58.8212 22.6596 58.8674 22.6124C58.9163 22.5652 59.0332 22.5442 59.2234 22.5442H59.5331C59.7179 22.5442 59.8348 22.5678 59.8837 22.6124C59.9326 22.6569 59.9543 22.7723 59.9543 22.9584V23.2494H59.957Z" fill="white"/>
<path d="M67.359 26.0391C67.3807 26.4821 67.4758 26.8597 67.6443 27.1664C67.8345 27.5072 68.0953 27.7746 68.4214 27.9634C68.7502 28.1521 69.1089 28.2465 69.5002 28.2465C70.2991 28.2465 70.9295 27.89 71.3887 27.1743C71.4784 27.0327 71.5708 26.9593 71.6659 26.9593C71.7093 26.9593 71.799 26.9986 71.9349 27.0746L72.174 27.2057C72.3642 27.308 72.4593 27.405 72.4593 27.4967C72.4593 27.5518 72.4267 27.6278 72.3642 27.7196C71.6659 28.7473 70.6958 29.2585 69.4594 29.2585C68.3807 29.2585 67.522 28.881 66.8861 28.1259C66.3834 27.5229 66.1307 26.7653 66.1307 25.8503C66.1307 24.7938 66.4514 23.9444 67.0927 23.3073C67.6959 22.7043 68.4649 22.4028 69.4024 22.4028C70.3507 22.4028 71.1224 22.7148 71.7202 23.3388C72.318 23.9627 72.6169 24.7676 72.6169 25.7586C72.6169 25.8713 72.587 25.9473 72.53 25.984C72.4729 26.0233 72.3588 26.0417 72.1876 26.0417H67.359V26.0391ZM71.4023 25.0953C71.3289 24.7335 71.1985 24.4294 71.0137 24.1829C70.617 23.6665 70.0871 23.4096 69.4268 23.4096C68.935 23.4096 68.5029 23.5669 68.128 23.8841C67.7557 24.2013 67.5247 24.605 67.4323 25.0953H71.4023Z" fill="white"/>
<path d="M21.3063 31.8147C15.6054 30.9836 9.82576 31.3507 4.12759 31.8907L3.35316 31.9694C2.50265 32.0952 1.56518 31.8016 0.945636 31.2065C-0.157586 30.226 -0.0190037 28.6844 0.0380595 27.392C0.111427 23.0898 0.497282 18.7929 1.17389 14.5353C1.81245 10.5268 2.74992 6.56285 3.92651 2.66182C3.98357 2.36819 4.11129 1.94873 4.42106 1.49518C4.68463 1.11766 5.03517 0.800439 5.43461 0.569732C6.22262 0.0978333 7.23617 -0.0070332 8.1193 0.242025C9.49968 0.598571 10.9208 0.789952 12.3338 0.774222C13.7495 0.763735 15.1517 0.543516 16.5022 0.15551C17.9043 -0.279686 19.5428 0.21843 20.3852 1.4008C20.6732 1.79405 20.8607 2.26333 20.9395 2.72736L20.9096 2.60414C22.1433 6.32428 23.1351 10.1309 23.7465 13.9953C24.3524 17.8517 24.6078 21.7737 24.4992 25.6669C24.4339 26.9804 24.5644 28.2571 24.347 29.5653C24.0399 30.8997 22.7329 31.9353 21.3063 31.8147ZM21.3063 31.6574C22.6188 31.7439 23.847 30.7424 24.0589 29.5155C24.1975 28.2597 24.0128 26.9358 23.972 25.6721C23.7329 20.5389 22.6949 15.4765 21.4503 10.4927C20.8145 8.00739 20.0944 5.5404 19.2928 3.09701L19.2711 3.03147L19.2629 2.9738C19.1678 2.24497 18.4939 1.66821 17.7412 1.59218C17.5021 1.56596 17.2576 1.58694 17.0239 1.64461C15.5022 2.0667 13.9071 2.26595 12.3257 2.23711C10.7659 2.21089 9.2198 1.96446 7.73887 1.54761C6.65467 1.17796 5.402 1.84386 5.19549 2.94234C2.70101 10.6238 1.23095 18.612 0.866835 26.6605C0.858683 27.6017 0.644016 28.6844 0.801619 29.5915C0.96194 30.4724 1.68202 31.2091 2.60319 31.3821C2.97817 31.4686 3.68467 31.3769 4.08683 31.3638L5.65743 31.272L6.44272 31.2274C7.75246 31.2537 9.04861 31.1488 10.3583 31.12C11.4154 31.12 13.9751 31.1724 15.0674 31.1803L18.2005 31.3349C19.2521 31.369 20.2738 31.6495 21.3063 31.6574Z" fill="white"/>
<path d="M12.3283 13.075C11.9941 13.3792 11.7142 13.6911 11.3773 13.9271C10.4534 14.572 9.42084 14.5484 8.52141 13.8878C7.90459 13.4368 7.48884 12.8365 7.21439 12.1444C7.13287 11.9399 7.15461 11.7642 7.37743 11.6777C7.6084 11.5859 7.74427 11.717 7.82307 11.9137C8.06219 12.4983 8.40457 13.0121 8.93444 13.3923C9.61105 13.8773 10.3148 13.9009 10.9914 13.4132C11.5458 13.0121 12.0485 12.5612 11.9751 11.7878C11.9561 11.6017 11.9289 11.5047 11.717 11.4418C10.6355 11.1167 9.89636 10.4062 9.44801 9.42307C9.05129 8.55268 9.30943 7.98378 10.2415 7.65345C11.2985 7.27855 12.3936 7.2602 13.4886 7.43848C13.9098 7.50664 14.3337 7.64034 14.7168 7.82386C15.2766 8.09389 15.4451 8.51598 15.2657 9.09799C14.9315 10.1938 14.1734 10.9305 13.1001 11.3841C12.9479 11.447 12.6816 11.4942 12.6653 11.5807C12.6191 11.8429 12.5919 12.1575 12.7006 12.3856C12.9805 12.9702 13.4424 13.4159 14.0783 13.6571C14.5158 13.8248 14.9532 13.796 15.369 13.5758C16.0293 13.2245 16.4478 12.6766 16.7385 12.0211C16.7874 11.911 16.8363 11.7773 16.926 11.7196C17.0102 11.6646 17.2005 11.6489 17.263 11.7013C17.3553 11.7799 17.4341 11.9477 17.4124 12.0605C17.2195 13.1013 15.9369 14.2731 14.8554 14.3833C14.0348 14.4672 13.3664 14.1237 12.7957 13.5863C12.6272 13.4237 12.4805 13.2428 12.3283 13.075Z" fill="black"/>
<path d="M12.3283 13.075C11.9941 13.3792 11.7142 13.6911 11.3773 13.9271C10.4534 14.572 9.42084 14.5484 8.52141 13.8878C7.90459 13.4368 7.48884 12.8365 7.21439 12.1444C7.13287 11.9399 7.15461 11.7642 7.37743 11.6777C7.6084 11.5859 7.74427 11.717 7.82307 11.9137C8.06219 12.4983 8.40457 13.0121 8.93444 13.3923C9.61105 13.8773 10.3148 13.9009 10.9914 13.4132C11.5458 13.0121 12.0485 12.5612 11.9751 11.7878C11.9561 11.6017 11.9289 11.5047 11.717 11.4418C10.6355 11.1167 9.89636 10.4062 9.44801 9.42307C9.05129 8.55268 9.30943 7.98378 10.2415 7.65345C11.2985 7.27855 12.3936 7.2602 13.4886 7.43848C13.9098 7.50664 14.3337 7.64034 14.7168 7.82386C15.2766 8.09389 15.4451 8.51598 15.2657 9.09799C14.9315 10.1938 14.1734 10.9305 13.1001 11.3841C12.9479 11.447 12.6816 11.4942 12.6653 11.5807C12.6191 11.8429 12.5919 12.1575 12.7006 12.3856C12.9805 12.9702 13.4424 13.4159 14.0783 13.6571C14.5158 13.8248 14.9532 13.796 15.369 13.5758C16.0293 13.2245 16.4478 12.6766 16.7385 12.0211C16.7874 11.911 16.8363 11.7773 16.926 11.7196C17.0102 11.6646 17.2005 11.6489 17.263 11.7013C17.3553 11.7799 17.4341 11.9477 17.4124 12.0605C17.2195 13.1013 15.9369 14.2731 14.8554 14.3833C14.0348 14.4672 13.3664 14.1237 12.7957 13.5863C12.6272 13.4237 12.4805 13.2428 12.3283 13.075Z" fill="white" stroke="white" stroke-width="0.5" stroke-miterlimit="10"/>
</svg>
