<svg width="24" height="24" viewBox="0 0 24 24" fill="none" xmlns="http://www.w3.org/2000/svg">
<path d="M2.06201 6.67897C2.77134 5.13169 3.77354 3.82392 5.0366 2.73652C6.74813 1.2563 8.71136 0.365299 10.9126 0.0922493C13.4982 -0.228704 15.9282 0.283863 18.1751 1.69222C18.7334 2.04192 19.2551 2.43952 19.7539 2.87065C19.8775 2.97603 19.8638 3.03831 19.7585 3.1437C18.738 4.20715 17.7175 5.27061 16.7061 6.34364C16.5872 6.46819 16.5231 6.45861 16.3949 6.35801C13.4295 3.96763 9.10492 4.61433 6.89457 7.77596C6.50559 8.33164 6.18982 8.93043 5.97016 9.58191C5.95186 9.6394 5.91525 9.69209 5.88779 9.74958C5.29745 9.28012 4.70253 8.81067 4.11677 8.33643C3.43032 7.78554 2.74388 7.23465 2.06201 6.67897Z" fill="#E94335"/>
<path d="M5.88748 14.2429C6.08426 14.698 6.24901 15.1722 6.49613 15.5986C7.53495 17.3806 9.01766 18.5255 10.9717 18.9327C12.7336 19.3015 14.4268 19.0524 16.0057 18.1279C16.0606 18.0991 16.1155 18.0704 16.1658 18.0417C16.1933 18.0704 16.2162 18.1039 16.2436 18.1279C17.4243 19.086 18.6096 20.044 19.7902 21.0021C19.2228 21.5913 18.5775 22.0655 17.8911 22.4775C15.9004 23.6655 13.745 24.1446 11.4751 23.9625C8.64698 23.7326 6.20782 22.5637 4.19426 20.456C3.31103 19.5315 2.5834 18.4872 2.05713 17.2944C2.54679 16.9016 3.03645 16.5135 3.52612 16.1207C4.31324 15.4932 5.10036 14.8705 5.88748 14.2429Z" fill="#34A853"/>
<path d="M19.7951 21.0021C18.6144 20.044 17.4292 19.086 16.2485 18.1279C16.221 18.1039 16.1936 18.0704 16.1707 18.0417C16.578 17.7111 16.9944 17.3902 17.3285 16.9686C17.8868 16.2692 18.2575 15.4788 18.4497 14.5926C18.4726 14.4824 18.4542 14.4441 18.349 14.4489C18.2941 14.4537 18.2437 14.4489 18.1888 14.4489C16.3217 14.4489 14.45 14.4441 12.5829 14.4537C12.3769 14.4537 12.3312 14.3962 12.3358 14.1902C12.3449 12.801 12.3449 11.4118 12.3358 10.0226C12.3358 9.84539 12.3815 9.79749 12.5508 9.79749C15.9739 9.80228 19.397 9.80228 22.8246 9.79749C22.971 9.79749 23.0305 9.83581 23.0671 9.99868C23.3463 11.316 23.328 12.6382 23.1587 13.9699C23.0214 15.0333 22.7743 16.0633 22.3944 17.0596C21.8315 18.5303 21.0032 19.8141 19.9141 20.9159C19.8729 20.9494 19.8317 20.9733 19.7951 21.0021Z" fill="#4285F3"/>
<path d="M5.88756 14.2429C5.10044 14.8704 4.31332 15.4932 3.5262 16.1207C3.03653 16.5087 2.54687 16.9015 2.05721 17.2943C1.67738 16.5566 1.43026 15.7758 1.2289 14.971C0.844491 13.4141 0.785 11.8333 0.995509 10.2477C1.16026 9.00224 1.50348 7.80466 2.05721 6.68372C2.74365 7.2346 3.42552 7.79028 4.11196 8.34117C4.7023 8.81542 5.29264 9.28487 5.88298 9.75432C5.78231 10.2669 5.64044 10.7699 5.59468 11.2968C5.51231 12.2549 5.59925 13.189 5.8601 14.1087C5.87841 14.1471 5.88298 14.195 5.88756 14.2429Z" fill="#FABB06"/>
</svg>
