<svg width="77" height="34" viewBox="0 0 77 34" fill="none" xmlns="http://www.w3.org/2000/svg">
<path d="M15.4433 22.8624C13.2954 24.3569 10.7798 23.868 7.97065 21.7953C6.87372 20.9862 5.68957 20.3118 4.42759 19.8417C0.214882 18.2721 -1.21739 16.2376 1.11488 12.344C1.93392 10.977 1.50089 8.90593 2.13084 7.43397C3.54117 4.14059 7.32973 2.90733 11.7942 3.64018C12.9341 3.82281 14.0873 3.91017 15.2417 3.90135C20.9906 3.8768 23.1113 5.29131 22.8679 7.64395C22.6198 10.0431 22.578 12.4715 22.9489 14.8831C23.3981 17.8015 22.6177 19.6981 20.4484 20.4398C18.6834 21.0431 16.9722 21.799 15.4433 22.8624Z" fill="#FFCE00"/>
<path d="M36.2723 13.7915V17.6976C36.2723 18.0013 36.2334 18.1928 36.1558 18.2722C36.078 18.3495 35.8878 18.3882 35.5812 18.3882H33.368C33.0647 18.3882 32.8743 18.3495 32.7966 18.2722C32.7189 18.1949 32.6801 18.0034 32.6801 17.6976V5.26167C32.6801 4.95836 32.7189 4.7677 32.7966 4.6897C32.8743 4.6117 33.0647 4.57304 33.368 4.57374H38.3972C39.1998 4.57374 39.8625 4.6608 40.3852 4.83491C40.9279 5.02323 41.4229 5.3277 41.8358 5.72707C42.7412 6.57675 43.1939 7.72017 43.1939 9.15731C43.1939 10.5537 42.8228 11.6701 42.0807 12.5066C41.3254 13.3632 40.1381 13.7915 38.5189 13.7915H36.2723ZM36.2723 10.9077H37.4664C38.1611 10.9077 38.6502 10.7762 38.9336 10.5133C39.2704 10.203 39.4389 9.76445 39.4392 9.19753C39.4392 8.03793 38.7849 7.45795 37.4763 7.4576H36.2749L36.2723 10.9077Z" fill="black"/>
<path d="M48.1295 14.0125C48.1493 15.4225 48.8205 16.1275 50.1431 16.1275C50.514 16.1275 50.8157 16.0735 51.0483 15.9655C51.2984 15.8422 51.51 15.6529 51.6605 15.4181C51.7007 15.3491 51.7631 15.2957 51.8376 15.2666C51.902 15.2464 52.0488 15.2363 52.2779 15.2363H54.0993C54.356 15.2363 54.5348 15.2651 54.6358 15.3225C54.7368 15.38 54.7873 15.4827 54.7873 15.6307C54.7873 15.7798 54.7232 15.9823 54.595 16.2382C54.4772 16.4796 54.3275 16.7041 54.15 16.9058C53.2122 17.9504 51.8799 18.4728 50.153 18.4728C48.4261 18.4728 47.0703 17.9668 46.0855 16.9549C45.2149 16.0578 44.7797 14.8975 44.7797 13.474C44.7797 12.462 45.0158 11.5413 45.488 10.7118C46.3446 9.20048 47.8455 8.44482 49.9906 8.44482C51.8929 8.44482 53.2859 9.07564 54.1693 10.3373C54.8028 11.234 55.1198 12.2727 55.1205 13.4536C55.1205 13.6897 55.0761 13.8417 54.9889 13.9091C54.9017 13.9764 54.712 14.0104 54.4221 14.0104L48.1295 14.0125ZM52.0251 12.0897C51.9102 11.6245 51.6824 11.2589 51.3419 10.9928C51.0013 10.7268 50.5848 10.5936 50.0924 10.5932C49.5864 10.5932 49.1698 10.7249 48.8425 10.9881C48.5151 11.2514 48.3077 11.6189 48.2203 12.0908L52.0251 12.0897Z" fill="black"/>
<path d="M61.6645 10.8381V17.602C61.6645 17.9478 61.6258 18.1649 61.5485 18.2533C61.4712 18.3418 61.2797 18.3858 60.974 18.3855H59.0314C58.7281 18.3855 58.5365 18.3414 58.4568 18.2533C58.377 18.1652 58.3384 17.9481 58.3408 17.602V10.8381H57.936C57.6325 10.8381 57.4413 10.7937 57.364 10.7055C57.2867 10.6172 57.2476 10.3999 57.2476 10.0546V8.47556C57.2476 8.12977 57.2864 7.91282 57.364 7.82472C57.4413 7.73645 57.6325 7.69205 57.936 7.69205H58.3408V5.26054C58.3408 4.91509 58.3795 4.69814 58.4568 4.60969C58.5341 4.52124 58.7256 4.47719 59.0314 4.47754H60.974C61.2773 4.47754 61.4688 4.52159 61.5485 4.60969C61.6283 4.6978 61.6669 4.91474 61.6645 5.26054V7.69205H62.869C63.1723 7.69205 63.3628 7.73627 63.4405 7.82472C63.5181 7.91317 63.5569 8.13012 63.5569 8.47556V10.0546C63.5569 10.4001 63.5181 10.617 63.4405 10.7055C63.3628 10.7939 63.1723 10.8381 62.869 10.8381H61.6645Z" fill="black"/>
<path d="M69.2066 12.5284L65.159 5.48148C65.0308 5.26523 64.9667 5.11114 64.9667 5.01921C64.9667 4.87992 65.0174 4.78311 65.1187 4.72878C65.2201 4.67446 65.3989 4.6466 65.6552 4.64521H68.0026C68.2721 4.64521 68.4377 4.66349 68.4983 4.69745C68.5589 4.7314 68.6503 4.86668 68.7715 5.09652L71.0379 9.3275L73.2443 5.10487C73.3655 4.86877 73.4566 4.73262 73.5175 4.6964C73.5781 4.66088 73.7432 4.64417 74.0132 4.64417H76.3115C76.5678 4.64417 76.7466 4.67202 76.848 4.72774C76.9493 4.78346 77 4.88026 77 5.01816C77 5.1101 76.9425 5.26105 76.8276 5.47104L69.9844 17.8924C69.8625 18.1215 69.7697 18.2544 69.706 18.2909C69.6422 18.3275 69.4787 18.3449 69.2155 18.3432H66.9788C66.7364 18.3432 66.5776 18.3264 66.5035 18.2935C66.4388 18.2682 66.3836 18.2233 66.3455 18.1652C66.3074 18.1071 66.2884 18.0386 66.2909 17.9692C66.2909 17.8835 66.3515 17.7331 66.4732 17.5163L69.2066 12.5284Z" fill="black"/>
<path d="M36.85 24.5032L36.6364 24.6144C36.4992 24.6883 36.4067 24.7252 36.359 24.7252C36.301 24.7252 36.2347 24.673 36.161 24.5747C35.9396 24.2791 35.6652 24.1313 35.3378 24.1313C35.1267 24.1275 34.9223 24.206 34.768 24.3501C34.692 24.4167 34.6314 24.4989 34.5904 24.5912C34.5494 24.6835 34.5289 24.7835 34.5303 24.8845C34.5288 24.9776 34.5478 25.0699 34.5861 25.1548C34.6244 25.2397 34.681 25.315 34.7518 25.3755C34.8998 25.5071 35.1876 25.6628 35.6152 25.8425C36.2218 26.096 36.6493 26.3122 36.8976 26.4912C37.3934 26.8506 37.6414 27.344 37.6414 27.9716C37.6414 28.6314 37.4013 29.1724 36.9211 29.5945C36.483 29.9793 35.9552 30.172 35.3378 30.1727C34.922 30.1756 34.5121 30.0733 34.1464 29.8755C33.7862 29.6834 33.4821 29.4012 33.2636 29.0565C33.1267 28.8345 33.0578 28.6793 33.0578 28.5864C33.0578 28.4756 33.1623 28.3774 33.3665 28.2855L33.6198 28.181C33.7072 28.1379 33.8008 28.1087 33.8972 28.0943C33.9811 28.0943 34.0734 28.1892 34.174 28.379C34.4324 28.8752 34.823 29.1233 35.3457 29.1233C35.7252 29.1233 36.0181 28.9967 36.2243 28.7436C36.3796 28.5515 36.4636 28.3116 36.4619 28.0645C36.4619 27.8058 36.3867 27.5986 36.2363 27.4429C36.0858 27.2873 35.7968 27.1172 35.3692 26.9326C34.7465 26.6687 34.298 26.4364 34.0236 26.2358C33.6225 25.9461 33.4219 25.5265 33.4219 24.977C33.4219 24.3912 33.6331 23.9211 34.0555 23.5666C34.3743 23.2979 34.7675 23.1328 35.1826 23.0932C35.5977 23.0537 36.015 23.1415 36.3789 23.3452C36.6714 23.4985 36.9143 23.7318 37.0793 24.0179C37.1111 24.0736 37.13 24.1358 37.1347 24.1997C37.1347 24.3017 37.0398 24.4029 36.85 24.5032Z" fill="black"/>
<path d="M43.6117 24.3053V29.546C43.6117 29.7361 43.5881 29.8548 43.5407 29.9022C43.4933 29.9496 43.3746 29.9734 43.1845 29.9738H42.8758C42.6908 29.9738 42.5747 29.9499 42.5273 29.9022C42.48 29.8545 42.4563 29.7357 42.4563 29.546V24.3053H42.1805C41.9904 24.3053 41.8716 24.2816 41.8243 24.2342C41.7769 24.1869 41.7532 24.0688 41.7532 23.8801V23.6665C41.7532 23.4763 41.7769 23.3576 41.8243 23.3102C41.8716 23.2629 41.9904 23.239 42.1805 23.2387H42.4579V21.2417C42.4579 21.0521 42.4814 20.933 42.5289 20.8855C42.5765 20.838 42.6924 20.8145 42.8773 20.8145H43.186C43.3762 20.8145 43.4947 20.8385 43.5423 20.8855C43.5898 20.9325 43.6133 21.0521 43.6133 21.2417V23.2366H44.3733C44.5634 23.2366 44.6822 23.2604 44.7296 23.3081C44.7769 23.3558 44.8008 23.4746 44.8011 23.6644V23.8801C44.8011 24.0702 44.7773 24.189 44.7296 24.2363C44.6818 24.2837 44.5631 24.3074 44.3733 24.3074L43.6117 24.3053Z" fill="black"/>
<path d="M52.2059 23.0867C53.2666 23.0867 54.148 23.4718 54.85 24.2421C55.4563 24.9072 55.7597 25.7015 55.7604 26.625C55.7604 27.7014 55.3671 28.588 54.5805 29.2848C53.9153 29.8768 53.1158 30.1728 52.1819 30.1728C51.547 30.175 50.9234 30.0053 50.3772 29.6818C49.8167 29.3539 49.3609 28.8735 49.0629 28.2965C48.7854 27.7648 48.6439 27.1726 48.6513 26.5728C48.6513 25.5915 49.0208 24.7498 49.7598 24.0478C50.4353 23.4067 51.2507 23.0863 52.2059 23.0867ZM52.174 24.1314C51.4191 24.1314 50.8149 24.4216 50.3615 25.0021C50.008 25.4506 49.8311 26.0101 49.8308 26.6804C49.8308 27.3981 50.0657 27.9918 50.5354 28.4616C50.9787 28.9052 51.5329 29.1269 52.1981 29.1265C52.9736 29.1265 53.5936 28.8389 54.0581 28.2636C54.4064 27.8259 54.5805 27.2823 54.5805 26.6329C54.5805 25.8727 54.343 25.2605 53.868 24.7963C53.4198 24.3534 52.8552 24.1317 52.174 24.1314Z" fill="black"/>
<path d="M61.8671 23.9652C62.1624 23.601 62.4104 23.3607 62.6109 23.2444C62.8115 23.1281 63.0755 23.0701 63.4028 23.0704C63.6256 23.0652 63.8472 23.1028 64.0558 23.1812C64.2379 23.2553 64.3289 23.3478 64.3289 23.4585C64.3289 23.5062 64.292 23.6013 64.2182 23.7437L64.0678 24.0206C64.0276 24.1057 63.9771 24.1855 63.9173 24.2582C63.8973 24.2771 63.8736 24.2917 63.8477 24.3012C63.8219 24.3107 63.7944 24.3149 63.7669 24.3136C63.7046 24.3066 63.6448 24.285 63.5924 24.2504C63.4776 24.1916 63.3493 24.1642 63.2205 24.171C62.9955 24.1706 62.7743 24.2293 62.5791 24.3413C62.3906 24.4426 62.2344 24.5948 62.1283 24.7806C61.9542 25.1023 61.8671 25.6512 61.8671 26.427V29.5459C61.8671 29.7361 61.8433 29.8548 61.7956 29.9022C61.7479 29.9495 61.6317 29.9734 61.4472 29.9737H61.1385C60.9489 29.9737 60.8298 29.9497 60.7822 29.9022C60.7347 29.8546 60.7112 29.7361 60.7112 29.5459V23.6643C60.7112 23.4742 60.7349 23.3555 60.7822 23.3081C60.8298 23.2606 60.9489 23.2365 61.1385 23.2365H61.4472C61.6321 23.2365 61.7482 23.2604 61.7956 23.3081C61.8429 23.3558 61.8668 23.4746 61.8671 23.6643V23.9652Z" fill="black"/>
<path d="M69.2479 26.8465C69.2695 27.3058 69.3646 27.6937 69.5331 28.0103C69.709 28.3489 69.9751 28.6324 70.302 28.8293C70.6288 29.0263 71.0037 29.1291 71.3853 29.1265C72.1824 29.1265 72.8105 28.757 73.2694 28.0181C73.3593 27.8708 73.4517 27.7966 73.5468 27.7966C73.5886 27.7966 73.6782 27.8361 73.8158 27.9152L74.0529 28.05C74.2431 28.1544 74.3381 28.2547 74.3381 28.3508C74.3281 28.4345 74.2952 28.5139 74.2431 28.5801C73.5466 29.6408 72.5808 30.1714 71.3456 30.1717C70.2689 30.1717 69.414 29.781 68.7809 28.9996C68.2795 28.3773 68.0287 27.5938 68.0287 26.649C68.0287 25.5566 68.3481 24.6807 68.9867 24.0211C69.5885 23.3985 70.3563 23.0872 71.2903 23.0872C72.235 23.0872 73.0056 23.4091 73.6022 24.053C74.1987 24.6968 74.4968 25.5307 74.4964 26.5545C74.4964 26.6704 74.4677 26.7483 74.4092 26.788C74.3507 26.8277 74.2379 26.847 74.0691 26.847L69.2479 26.8465ZM73.2773 25.8728C73.2184 25.5348 73.0861 25.2139 72.8897 24.9326C72.4937 24.3991 71.966 24.1325 71.3065 24.1329C70.8286 24.1278 70.3664 24.3032 70.0121 24.6239C69.6419 24.9468 69.3968 25.3893 69.3195 25.8744L73.2773 25.8728Z" fill="black"/>
<path d="M6.74786 33.8735C5.85047 33.8735 4.97189 33.7288 4.16278 33.2942C2.02482 32.1414 1.13318 29.4743 1.71821 25.9757C2.51792 21.1879 3.02407 17.5283 3.3521 14.1101C3.43776 13.2221 3.4806 12.3049 3.52186 11.4174C3.61118 9.50721 3.70468 7.53066 4.22023 5.59798C5.05285 2.48168 7.42325 0.414762 10.2591 0.331709C11.0097 0.310293 11.7263 0.428343 12.4195 0.543259C13.0353 0.644593 13.6167 0.745928 14.1855 0.734959C14.8928 0.727646 15.6063 0.562063 16.3616 0.386555C16.9419 0.252313 17.5421 0.112847 18.1653 0.0423308C20.777 -0.253838 22.941 1.01441 24.1095 3.52323C24.9077 5.23704 25.1924 7.08562 25.3663 8.66832C25.4603 9.52705 25.5533 10.3861 25.6452 11.2456C26.0856 15.3392 26.5416 19.5723 27.1799 23.7003L27.1856 23.7406C27.5053 25.8064 27.8673 28.1476 26.9537 30.2699C26.3269 31.7324 25.1255 32.7364 23.4817 33.1793C22.9169 33.328 22.3378 33.4151 21.7543 33.4389C20.2891 33.5063 18.8292 33.3538 17.4214 33.2075C15.8241 33.0414 14.3151 32.8847 12.8029 33.019C11.9906 33.0916 11.194 33.2457 10.351 33.4086C9.80723 33.5131 9.24571 33.6217 8.67949 33.7064C8.04058 33.8093 7.39496 33.8652 6.74786 33.8735ZM10.4429 1.95359C10.3975 1.95359 10.352 1.95359 10.3071 1.95359C7.75389 2.02985 6.27879 4.18765 5.7904 6.01586C5.32029 7.78138 5.23463 9.58399 5.14583 11.4921C5.10352 12.3994 5.05964 13.3376 4.9698 14.2658C4.63602 17.7226 4.12778 21.4161 3.3218 26.2421C3.04966 27.8697 2.89766 30.7645 4.93428 31.8625C5.94815 32.4094 7.27595 32.2694 8.44077 32.0955C8.97148 32.0161 9.51576 31.9111 10.0428 31.8092C10.889 31.6457 11.7665 31.477 12.6587 31.3971C14.3271 31.2482 15.9855 31.4206 17.5896 31.5877C19 31.7345 20.3356 31.8729 21.6801 31.8123C22.1455 31.7948 22.6077 31.7272 23.0586 31.6107C24.2375 31.2926 25.0231 30.6439 25.4614 29.6258C26.1926 27.9318 25.8792 25.926 25.5805 23.9845L25.5742 23.9443C24.9307 19.7791 24.4726 15.5267 24.0301 11.4148C23.9379 10.5564 23.8449 9.69838 23.7512 8.84069C23.5945 7.38962 23.3333 5.70663 22.637 4.20489C21.77 2.34326 20.2478 1.43647 18.3496 1.6522C17.8195 1.71279 17.2903 1.83554 16.7304 1.9656C15.9234 2.1526 15.0886 2.34639 14.2038 2.35579C13.4934 2.35893 12.8128 2.25132 12.1552 2.14215C11.5586 2.04604 10.9935 1.95359 10.4429 1.95359Z" fill="black"/>
<path d="M19.9391 12.5974C19.8023 13.1348 19.4617 13.652 18.9576 14.0918C18.3538 14.6199 17.669 14.8904 17.0297 14.8544C16.5747 14.8267 16.1213 14.6455 15.6799 14.3106C15.5417 14.2014 15.4092 14.0851 15.283 13.9622C15.241 13.9199 15.2014 13.8752 15.1644 13.8285C15.0714 13.7146 14.9648 13.5867 14.8447 13.5773H14.8202C14.7762 13.5823 14.7349 13.6005 14.7016 13.6295C14.6365 13.6866 14.5788 13.7515 14.5297 13.8228C14.4869 13.8832 14.4395 13.9402 14.3882 13.9936C14.2467 14.1352 14.0946 14.2659 13.9332 14.3843C13.4751 14.716 12.9852 14.8821 12.4952 14.8821C11.987 14.8821 11.4772 14.7024 11.0039 14.3435C10.4121 13.8928 9.97803 13.2952 9.67872 12.5112C9.54605 12.1628 9.71372 12.0092 9.8793 11.9408C9.92458 11.9195 9.97368 11.9076 10.0237 11.9057C10.0736 11.9038 10.1235 11.912 10.1702 11.9298C10.2747 11.9742 10.3525 12.0729 10.4137 12.2239C10.5704 12.6224 11.1726 13.9309 12.3202 14.0521C13.2803 14.1529 14.1218 13.3689 14.3793 12.555C14.4462 12.3435 14.4315 12.1424 14.3443 12.004C14.233 11.8306 14.0215 11.7501 13.8178 11.6738L13.7279 11.6389C13.0155 11.3589 12.5041 10.7624 12.2001 10.3121C11.9911 10.0029 11.7524 9.52075 11.7968 8.97437C11.8543 8.26817 12.3458 7.81947 13.3001 7.60009C14.7032 7.27937 16.1443 7.41152 17.2538 7.96573C17.379 8.02541 17.4905 8.11039 17.5813 8.2153C17.6721 8.32021 17.7402 8.44278 17.7813 8.5753C17.9077 8.96027 17.844 9.47426 17.6142 9.91877C17.3533 10.4096 16.9922 10.84 16.5543 11.1823C16.3293 11.3682 16.0806 11.5233 15.8147 11.6436C15.7828 11.6587 15.7489 11.6723 15.7155 11.6843C15.5164 11.7668 15.3279 11.841 15.2453 12.0374C15.2034 12.1523 15.1924 12.2763 15.2135 12.3968C15.2913 13.0554 15.775 13.6582 16.4446 13.9351C16.8041 14.0871 17.2037 14.1159 17.5813 14.0171C17.9281 13.9199 18.2603 13.6995 18.5413 13.3767C18.7654 13.1197 18.9592 12.8073 19.1608 12.366C19.2033 12.257 19.2634 12.1559 19.339 12.0667C19.3824 12.0161 19.438 11.9774 19.5005 11.9542C19.563 11.931 19.6303 11.924 19.6962 11.934C19.7643 11.9525 19.8257 11.9899 19.8734 12.0419C19.921 12.0938 19.9531 12.1582 19.9658 12.2275C19.9871 12.3511 19.978 12.4781 19.9391 12.5974Z" fill="black"/>
</svg>
