<svg width="42" height="28" viewBox="0 0 42 28" fill="none" xmlns="http://www.w3.org/2000/svg">
<path d="M38.3314 27.5581H3.66471C2.95747 27.5581 2.27919 27.2769 1.7791 26.7763C1.279 26.2757 0.998047 25.5968 0.998047 24.889L0.998047 13.6609H2.91916L3.35249 12.6111H4.32249L4.75471 13.6565H8.53471V12.8613L8.87249 13.662H10.8347L11.1725 12.848V13.6598H20.5647V11.9427H20.7425C20.8692 11.9471 20.9058 11.9583 20.9058 12.1696V13.662H25.7647V13.2628C26.2614 13.5152 26.8469 13.6632 27.468 13.6632L27.5736 13.662H27.568H29.6125L30.0503 12.6166H31.0203L31.448 13.662H35.388V12.6678L35.9836 13.662H39.1347V7.09606H36.0158V7.87121L35.5791 7.09606H32.3725V7.87121L31.9714 7.09606H27.6414C26.9853 7.06287 26.3317 7.19801 25.7425 7.48864L25.7658 7.47863V7.09606H22.7792V7.47863C22.4176 7.19343 21.961 7.057 21.5025 7.09717H21.5091H10.5947L9.86249 8.79316L9.11027 7.09717H5.67249V7.87232L5.2936 7.09717H2.36027L1.00138 10.2111V3.53836C1.00138 2.83047 1.28233 2.15158 1.78243 1.65102C2.28253 1.15047 2.9608 0.869263 3.66805 0.869263H38.3347C39.0419 0.869263 39.7202 1.15047 40.2203 1.65102C40.7204 2.15158 41.0014 2.83047 41.0014 3.53836V15.1934H38.9203C38.8869 15.1912 38.8469 15.1912 38.808 15.1912C38.3258 15.1912 37.878 15.3358 37.5047 15.5838L37.5136 15.5782V15.1934H34.4358C33.955 15.1669 33.4793 15.3036 33.0858 15.5816L33.0925 15.5771V15.1923H27.5969V15.5771C27.147 15.3232 26.639 15.1906 26.1225 15.1923H26.0791H26.0814H22.4558V15.5771C21.9821 15.2734 21.4201 15.1383 20.8603 15.1934L20.8703 15.1923H16.8136L15.8847 16.1977L15.0158 15.1923H8.95582V21.7628H14.9025L15.8592 20.7418L16.7603 21.7628H20.4258V20.2247H20.9369C21.4284 20.2439 21.9185 20.1618 22.3769 19.9834L22.3525 19.9923V21.765H25.3747V20.0534H25.5203C25.7047 20.0534 25.7236 20.0601 25.7236 20.2469V21.7661H34.908L35.0203 21.7683C35.5469 21.7683 36.038 21.6104 36.4469 21.3402L36.4369 21.3457V21.7661H39.3503L39.4891 21.7683C40.0347 21.7683 40.5536 21.656 41.0247 21.4525L40.9991 21.4625V24.8901C40.9991 25.598 40.7182 26.2769 40.2181 26.7774C39.718 27.278 39.0397 27.5592 38.3325 27.5592L38.3314 27.5581ZM24.448 20.8419H23.3169V16.1321H25.9125C26.3813 16.0886 26.8533 16.1675 27.2825 16.3612L27.2647 16.3545C27.6125 16.5458 27.8447 16.9106 27.8447 17.3287L27.8425 17.4032V17.3999L27.8436 17.4422C27.8436 17.9827 27.518 18.4475 27.0514 18.6499L27.0425 18.6533C27.2658 18.7333 27.4525 18.8701 27.5914 19.047L27.5936 19.0492C27.7505 19.3091 27.8162 19.614 27.7803 19.9155L27.7814 19.9089V20.8408H26.6525V20.2514C26.7059 19.9305 26.6416 19.601 26.4714 19.3239L26.4747 19.3294C26.3574 19.2403 26.2233 19.176 26.0804 19.1402C25.9376 19.1045 25.789 19.0981 25.6436 19.1215L25.6503 19.1204H24.448V20.8408V20.8419ZM24.448 17.1052V18.1628H25.8147C26.0077 18.1807 26.2019 18.1461 26.3769 18.0627L26.3703 18.0661C26.4418 18.0199 26.5006 17.9565 26.5413 17.8817C26.5821 17.8069 26.6035 17.7231 26.6036 17.6379L26.6025 17.6123V17.6134C26.608 17.5284 26.5893 17.4436 26.5486 17.3688C26.5079 17.294 26.4468 17.2323 26.3725 17.1908L26.3703 17.1897C26.2016 17.1142 26.0164 17.0836 25.8325 17.1007H25.8369L24.448 17.1052ZM14.4203 20.8408H9.96804V16.1321H14.4903L15.8736 17.6757L17.3036 16.1321H20.8958C22.1714 16.1321 22.7914 16.6403 22.7914 17.6835C22.7914 18.7456 22.1503 19.2616 20.8358 19.2616H19.4303V20.8397H17.2447L15.8603 19.2838L14.4214 20.8408H14.4203ZM18.3103 16.637L16.5836 18.4942L18.3103 20.4115V16.637ZM11.0892 18.9224V19.8588H13.8536L15.1314 18.4776L13.9025 17.1052H11.088V17.9615H13.5569V18.9213L11.0892 18.9224ZM19.4303 17.1063V18.3052H20.8825C21.3269 18.3052 21.5825 18.0783 21.5825 17.6824C21.5825 17.3043 21.3447 17.1052 20.8947 17.1052L19.4303 17.1063ZM39.4725 20.843H37.3014V19.831H39.4636C39.6254 19.8533 39.7894 19.811 39.9203 19.7131L39.9191 19.7142C39.9609 19.6755 39.9942 19.6285 40.0169 19.5763C40.0397 19.524 40.0514 19.4676 40.0514 19.4106V19.3928C40.0514 19.3365 40.0393 19.2809 40.0157 19.2298C39.9921 19.1787 39.9576 19.1334 39.9147 19.097C39.7997 19.0138 39.6579 18.9766 39.5169 18.9925H39.5191L39.3114 18.9858C38.2958 18.9591 37.1458 18.928 37.1458 17.5345C37.1458 16.8561 37.5703 16.1321 38.758 16.1321H40.9991V17.1352H38.9491C38.7908 17.1175 38.6309 17.1493 38.4914 17.2264L38.4958 17.2242C38.441 17.2603 38.3968 17.3106 38.3681 17.3697C38.3394 17.4288 38.3271 17.4945 38.3325 17.5601V17.5589V17.5712C38.3325 17.6461 38.3561 17.7191 38.4 17.7798C38.4439 17.8405 38.5058 17.8858 38.5769 17.9093L38.5791 17.9104C38.72 17.9538 38.8675 17.9719 39.0147 17.9638H39.0114L39.6214 17.9793C40.0812 17.9334 40.5406 18.0704 40.9003 18.3608L40.8969 18.3586C40.9303 18.3852 40.9591 18.4142 40.9847 18.4464L40.9858 18.4475L40.9991 20.2403C40.8123 20.4588 40.5746 20.628 40.307 20.7329C40.0394 20.8379 39.7501 20.8753 39.4647 20.8419L39.4725 20.843ZM35.0847 20.843H32.8936V19.831H35.0736C35.2367 19.8524 35.4018 19.8102 35.5347 19.7131L35.5325 19.7142C35.574 19.6753 35.607 19.6283 35.6296 19.5761C35.6521 19.5238 35.6637 19.4675 35.6636 19.4106V19.3995C35.6635 19.3423 35.6513 19.2857 35.6278 19.2335C35.6042 19.1814 35.5698 19.1348 35.5269 19.097C35.4099 19.0138 35.2663 18.9765 35.1236 18.9925H35.1258L34.9191 18.9858C33.9069 18.9591 32.758 18.928 32.758 17.5345C32.758 16.8561 33.1803 16.1321 34.3658 16.1321H36.6191V17.1352H34.5569C34.3997 17.1177 34.2408 17.1495 34.1025 17.2264L34.1069 17.2242C34.0486 17.2644 34.0021 17.3196 33.9725 17.3841C33.9429 17.4485 33.9313 17.5197 33.9388 17.5902C33.9463 17.6608 33.9727 17.7279 34.0152 17.7847C34.0577 17.8414 34.1147 17.8856 34.1803 17.9126L34.1825 17.9137C34.3252 17.9575 34.4746 17.9756 34.6236 17.9671H34.6203L35.2258 17.9827C35.6881 17.9381 36.1495 18.0753 36.5125 18.3652L36.5091 18.3619C36.6312 18.4966 36.7241 18.6552 36.7819 18.8277C36.8396 19.0002 36.861 19.1828 36.8447 19.3639V19.3584C36.848 20.3404 36.2536 20.8408 35.0814 20.8408L35.0847 20.843ZM32.2203 20.843H28.4647V16.131H32.2169V17.1041H29.5869V17.9604H32.1558V18.9202H29.5869V19.8566L32.2203 19.861V20.8397V20.843ZM34.4091 12.7401H32.1191L31.6814 11.6902H29.3458L28.9214 12.7401H27.6058C27.015 12.7713 26.4332 12.585 25.9703 12.2163L25.9758 12.2196C25.7559 11.9766 25.5889 11.6904 25.4856 11.3793C25.3823 11.0681 25.3449 10.7388 25.3758 10.4124L25.3747 10.4213C25.3461 10.0889 25.3853 9.75409 25.49 9.4373C25.5947 9.12051 25.7626 8.82833 25.9836 8.57852L25.9814 8.58074C26.2147 8.37654 26.4875 8.22258 26.7828 8.12845C27.0782 8.03432 27.3897 8.00202 27.698 8.03358L27.6891 8.03247H28.778V9.03672H27.7114C27.5553 9.01659 27.3967 9.03117 27.2469 9.07942C27.0971 9.12767 26.9598 9.2084 26.8447 9.31586L26.8458 9.31475C26.6082 9.61925 26.4929 10.0016 26.5225 10.3868V10.3813C26.4871 10.777 26.5982 11.172 26.8347 11.4912L26.8314 11.4867C27.0523 11.6674 27.335 11.7544 27.6191 11.7292H27.6147H28.1191L29.7091 8.02579H31.398L33.3014 12.4743V8.02579H35.0136L36.9891 11.3043V8.02579H38.1447V12.7323H36.5403L34.4069 9.19797V12.7323L34.4091 12.7401ZM30.5214 8.82764L29.7469 10.7049H31.2991L30.5214 8.82764ZM19.6336 12.7379H18.5092V8.02913H21.0958C21.568 7.98009 22.0446 8.06043 22.4747 8.26156L22.458 8.25489C22.631 8.35061 22.7751 8.49093 22.8756 8.66127C22.976 8.83161 23.029 9.02576 23.0292 9.22355L23.0269 9.3014V9.29807V9.33254C23.027 9.58939 22.953 9.84081 22.8139 10.0566C22.6748 10.2724 22.4763 10.4435 22.2425 10.5492L22.2336 10.5525C22.4569 10.6371 22.6447 10.7727 22.788 10.9462L22.7903 10.9485C22.9488 11.2093 23.0142 11.5163 22.9758 11.8193L22.9769 11.8126V12.7368H21.8425L21.838 12.1429V12.0539C21.8784 11.7635 21.8142 11.4683 21.6569 11.2209L21.6603 11.2265C21.5426 11.14 21.4089 11.0776 21.267 11.0431C21.1252 11.0085 20.9778 11.0024 20.8336 11.0252L20.8403 11.0241H19.6347V12.7368L19.6336 12.7379ZM19.6336 9.00891V10.0543H20.998C21.1908 10.0752 21.3855 10.0405 21.5592 9.95422L21.5536 9.95644C21.6248 9.91314 21.6836 9.85223 21.7245 9.77959C21.7653 9.70694 21.7868 9.62499 21.7869 9.54162L21.7858 9.51048V9.51159C21.7915 9.42709 21.7723 9.34278 21.7306 9.26906C21.689 9.19535 21.6266 9.13545 21.5514 9.09677L21.5492 9.09566C21.3801 9.02305 21.1959 8.99252 21.0125 9.00669H21.0158L19.6336 9.00891ZM7.72693 12.7379H5.44249L5.01027 11.688H2.66805L2.23249 12.7379H1.01027L3.02471 8.02913H4.69471L6.60693 12.4854V8.02913H8.44138L9.91249 11.222L11.2647 8.02913H13.1369V12.7356H11.9814L11.9792 9.05229L10.3492 12.7368H9.36249L7.72804 9.04673V12.7368L7.72693 12.7379ZM3.8336 8.82764L3.06805 10.7049H4.6036L3.8336 8.82764ZM24.8203 12.7368H23.6736V8.02913H24.8214V12.7356L24.8203 12.7368ZM17.7247 12.7368H13.9758V8.02913H17.7314V9.0078H15.1003V9.85635H17.668V10.8228H15.098V11.7636H17.7292V12.7356L17.7247 12.7368Z" fill="#016FD0"/>
</svg>
