<svg width="251" height="206" viewBox="0 0 251 206" fill="none" xmlns="http://www.w3.org/2000/svg">
<path d="M114.848 2.56249C115.008 2.5119 115.16 2.4613 115.304 2.40228C116.069 1.93299 116.799 1.4088 117.489 0.833857C118.562 0.155454 119.841 -0.122274 121.1 0.0496483C122.736 0.277322 123.681 1.3651 125.039 2.12401C126.125 2.73236 127.339 3.07615 128.583 3.12746C129.84 3.17805 131.055 2.88292 132.228 3.53221C132.28 4.36371 132.11 5.1942 131.735 5.93821C131.36 6.68222 130.793 7.31287 130.093 7.76525C130.937 9.03854 131.839 10.295 132.675 11.5429C133.358 12.5886 134.235 13.4824 133.805 14.8231C133.569 15.5399 133.13 16.1723 132.911 16.8975C132.523 18.1539 132.835 19.5115 132.97 20.8185C133.105 22.1255 132.97 23.6349 131.983 24.495C131.322 24.9803 130.539 25.2722 129.722 25.3383C127.704 25.7397 125.631 25.7882 123.597 25.4816C125.183 25.254 126.794 25.06 128.397 24.9251C129.354 24.9816 130.31 24.8142 131.19 24.436C132.211 23.8036 132.413 22.4966 132.346 21.3835C132.295 20.5403 132.109 19.697 132.076 18.8538C132.029 17.6529 132.281 16.4593 132.81 15.3797C133.063 14.982 133.202 14.5226 133.213 14.0514C133.223 13.5801 133.104 13.1151 132.869 12.7066C132.377 11.8604 131.746 11.1023 131.004 10.4636C130.35 9.79493 129.648 9.1749 128.903 8.60849C127.237 9.31733 125.527 9.91729 123.782 10.4046C122.863 10.6744 121.935 10.9105 121.015 11.1804C120.096 11.4502 119.252 11.4333 118.779 12.5886C118.536 13.3073 118.43 14.0653 118.467 14.8231C118.506 15.5825 118.406 16.3425 118.172 17.0661L120.121 17.2095C119.961 17.2095 119.395 17.6648 119.201 17.7407C118.602 17.9695 117.954 18.0453 117.318 17.9614C116.682 17.8775 116.076 17.6364 115.557 17.2601L117.775 16.9734C117.703 16.4554 117.464 15.9751 117.094 15.6053C116.724 15.2355 116.244 14.9964 115.725 14.9243C115.209 14.9757 114.733 15.2247 114.396 15.6193C114.06 16.0138 113.889 16.5233 113.92 17.0408C113.982 17.559 114.167 18.0547 114.461 18.4862C114.755 18.9176 115.148 19.2722 115.607 19.52C116.544 19.992 117.549 20.3162 118.585 20.4812C118.096 20.3801 117.396 20.9872 116.957 21.1558C115.292 21.8916 113.488 22.2625 111.667 22.2436C110.031 22.1171 108.504 19.2586 107.921 17.8841C106.894 15.3881 106.517 12.6726 106.825 9.99139C107.027 8.02666 107.457 5.15966 109.238 3.98756C110.203 3.41896 111.279 3.06251 112.393 2.94195C113.218 2.86102 114.037 2.73434 114.848 2.56249Z" fill="black"/>
<path d="M195.308 12.5884H200.235C202.606 16.2227 203.998 20.6581 203.053 25.0008C201.813 29.9506 199.94 34.7233 198.632 39.6647C197.932 42.557 196.101 45.3228 197.08 48.4006C200.767 59.135 203.694 70.1307 207.103 80.9495C207.946 84.2718 209.364 87.4171 209.811 90.8238C209.887 91.1948 210.022 91.9537 210.098 92.3247C204.833 92.0717 199.577 92.1814 194.313 92.3247L193.714 91.7344L193.098 90.8912C198.32 90.79 203.576 90.9587 208.815 90.8069C204.825 76.8935 200.59 63.0476 196.287 49.2354C192.423 56.327 191.858 64.7593 188.086 71.9268C185.286 75.6708 179.979 79.575 175.381 76.2779C182.215 55.1043 188.61 33.7957 195.308 12.5884ZM199.451 14.9157C193.545 33.2223 187.918 51.6302 182.105 69.9537C181.178 72.2907 180.637 74.7626 180.502 77.2729C180.502 76.9188 184.83 74.5999 185.353 74.153C186.869 72.8246 188.069 71.1736 188.863 69.3213C191.908 63.056 192.912 56.3186 194.768 49.6739L195.342 49.4293C197.679 41.2499 200.092 33.0959 202.446 24.9249C203.534 21.1641 202.235 17.6647 200.86 14.0893L199.451 14.9157Z" fill="black"/>
<path d="M143.667 88.075C149.531 87.9907 155.42 87.7546 161.275 88.2015C164.523 88.2015 167.796 87.5859 170.994 88.4798C170.994 89.323 170.994 91.0853 170.994 91.9539C161.832 92.0776 152.664 92.0944 143.49 92.0045C143.541 91.0348 143.625 89.0616 143.667 88.075Z" fill="black"/>
<path d="M40.5545 91.583L41.3982 91.9034C50.1217 96.1618 59.014 100.336 68.615 102.258C74.5797 104.164 80.9325 103.667 87.0913 103.447C96.3733 102.635 105.694 102.354 115.008 102.604C120.366 103.279 126.153 104.012 130.49 107.545C134.556 111.028 135.214 117.15 133.375 121.948C130.194 130.81 125.554 139.023 121.243 147.371C111.372 165.282 101.074 182.956 90.3479 200.394C90.8467 200.395 91.3441 200.446 91.8328 200.546L93.402 200.731C94.3287 200.837 95.2385 201.057 96.1101 201.389C92.6849 201.17 89.2427 200.849 85.809 200.807C84.8387 200.807 83.8601 200.807 82.8899 200.858C82.4096 200.863 81.9303 200.903 81.4556 200.976C81.0348 201.09 80.6009 201.15 80.1648 201.153C79.8792 201.149 79.5984 201.078 79.3449 200.947C79.0915 200.815 78.8724 200.626 78.7053 200.394C78.4268 199.854 78.8487 199.011 79.1018 198.531C79.6453 197.511 80.1215 196.458 80.5276 195.377C81.1603 193.775 81.7256 192.139 82.2908 190.503C82.8561 188.867 83.4214 187.24 84.0457 185.629L84.1975 185.25C90.3732 167.997 96.9623 150.905 102.885 133.568C107.584 132.219 112.528 131.46 116.831 129.006C110.132 131.164 103.332 132.902 96.667 135.204C82.3752 138.813 67.4929 138.939 52.889 137.556C46.1396 136.586 38.8335 133.34 36.159 126.594C33.8727 120.27 34.2861 113.364 35.1297 106.812C37.0027 101.761 38.555 96.6003 40.5545 91.583Z" fill="black"/>
<path d="M107.323 19.7895C107.433 19.1993 107.627 18.0019 107.737 17.4116C107.602 18.1621 108.201 18.9294 108.58 19.5197C108.707 19.7052 109.213 20.2365 109.027 20.4726C108.842 20.7087 107.956 20.3461 107.72 20.3714C105.416 20.6159 107.568 23.8539 108.049 24.8911C108.53 25.9283 109.205 27.0667 109.787 28.146C111.12 30.5998 112.512 33.0368 113.803 35.5159C115.313 33.6692 116.84 31.8309 118.274 29.9252C118.637 29.4362 119 28.9471 119.345 28.4496C119.733 27.9901 120.07 27.4896 120.349 26.957C120.695 26.0548 120.164 24.8911 120.155 23.9551C120.872 24.0742 121.566 24.3017 122.214 24.6297C122.513 24.6966 122.798 24.8135 123.058 24.9754C123.182 25.0553 123.286 25.1618 123.363 25.2873C123.441 25.4128 123.489 25.554 123.505 25.7006C123.505 26.1475 123.15 26.5439 122.821 26.8053C121.462 28.1226 120.22 29.556 119.109 31.0889C117.157 33.4263 115.539 36.0228 114.3 38.8045C113.675 40.1462 113.227 41.5635 112.967 43.0207C112.74 44.5975 112.74 46.1997 112.512 47.785C112.225 49.5779 111.819 51.3498 111.297 53.0889C110.453 55.9475 109.483 58.747 108.766 61.6309C108.049 64.5147 108.53 67.4239 108.496 70.3837C108.496 70.274 123.682 71.345 125.032 71.4208C126.829 71.5136 128.626 71.5811 130.423 71.5726C132.22 71.5642 134.017 71.3197 135.822 71.3534C135.915 72.0512 135.782 72.7602 135.443 73.3771C134.745 75.1089 134.208 76.9014 133.84 78.7317C133.738 79.1786 133.629 79.6255 133.519 80.0724C133.342 80.7723 133.696 80.7133 134.287 80.5952C135.4 80.3591 136.649 80.0471 136.818 78.7654C137.062 77.1633 136.286 75.5105 136.683 73.9337C136.805 73.394 137.12 72.9174 137.569 72.5929C138.106 72.3813 138.697 72.3459 139.256 72.4918C140.498 72.6686 141.748 72.7784 143.002 72.8206H147.17C147.85 72.7726 148.532 72.8733 149.169 73.1157C150.139 73.5711 150.468 74.4818 151.008 75.3166C151.92 76.7248 152.923 78.0655 153.759 79.5328C154.663 80.9264 155.362 82.4429 155.834 84.0356C155.893 84.2886 154.467 84.0356 154.349 83.9598L152.662 83.3358C152.38 84.3902 152.161 85.4601 152.004 86.5401C152.398 86.599 152.799 86.599 153.193 86.5401C153.683 86.5401 154.164 86.5401 154.653 86.5401C155.639 86.5963 156.622 86.7033 157.597 86.8605C159.563 87.1641 161.495 87.611 163.444 87.9988C165.528 85.2583 169.012 87.1556 171.543 88.0579C171.543 88.8168 171.619 90.3683 171.636 91.1273C178.849 91.591 186.097 91.0682 193.31 91.3971L193.757 91.7766L194.356 92.3668C176.158 93.5473 157.859 91.4055 139.695 93.033C139.751 93.65 140.048 94.2202 140.522 94.6196C140.995 95.019 141.608 95.2155 142.226 95.1664C170.961 94.7869 199.73 95.2928 228.482 95.0146L228.921 93.8509L228.373 92.8137C222.324 92.2488 216.224 93.1004 210.166 92.409C210.09 92.038 209.956 91.279 209.88 90.908C216.629 92.0295 223.454 90.5538 230.128 91.6501C230.128 93.1594 230.128 94.6773 230.128 96.2035C228.371 96.4638 226.603 96.6355 224.829 96.7179C224.053 131.451 224.644 166.201 224.424 200.95L225.167 203.699C233.604 203.994 242.04 203.531 250.477 203.918L251 205.284C169.864 205.445 88.7287 205.284 7.59302 205.335C5.06201 205.192 2.27791 205.723 0 204.332C7.82081 202.999 15.9032 204.281 23.8337 203.657C26.2465 195.857 35.1219 193.85 42.31 193.538C47.102 176.918 53.0162 160.601 57.572 143.922C48.8147 142.792 37.9651 142.379 32.7091 134.25C27.7398 125.936 28.0014 115.75 28.9463 106.424C31.1314 90.4021 36.2103 74.8865 42.3269 59.9697C43.449 56.5968 49.2787 58.7217 47.6926 62.1031C44.4698 71.7666 41.0108 81.43 39.0366 91.4561C40.6733 90.0732 41.3313 87.9651 42.3606 86.169C52.1894 67.9973 63.2246 50.399 76.6558 34.6727C80.8235 29.9843 85.0925 24.8068 91.2934 22.7577C94.8369 21.2568 98.7852 21.3495 102.413 20.1184C103.957 19.4354 105.686 19.7052 107.332 19.7895M103.113 20.9195C102.75 21.2483 102.405 21.6025 102.05 21.9482C104.584 24.2222 106.328 27.2436 107.028 30.5745C107.45 32.6236 107.467 34.7317 107.703 36.8145C107.83 38.9125 108.489 40.9438 109.618 42.7171C110.304 42.6044 110.937 42.2779 111.426 41.7843C111.916 41.2906 112.237 40.655 112.343 39.9682C112.52 38.5868 112.345 37.1833 111.837 35.8869C111.561 34.9931 111.249 34.1077 110.9 33.2307C110.563 32.3875 110.192 31.5442 109.795 30.6504C109.399 29.7566 108.951 28.9639 108.521 28.1207C108.091 27.2775 107.61 26.4848 107.112 25.6838C106.614 24.8827 106.108 24.0985 105.577 23.3227C105.045 22.5469 104.497 21.7796 103.889 21.0375C103.855 20.9795 103.808 20.9293 103.753 20.8901C103.698 20.8509 103.635 20.8236 103.569 20.8099C103.398 20.8072 103.229 20.8387 103.071 20.9026M85.9361 27.1594C79.6592 32.5393 74.6563 39.1755 69.5436 45.6263C59.3135 59.4496 50.1851 74.0543 42.2425 89.3059C42.0316 89.9467 41.6013 91.2284 41.3988 91.8777L40.5552 91.5573C38.5557 96.5746 36.978 101.735 35.1135 106.803C35.4763 96.212 38.8594 85.992 41.7363 75.8647C42.4619 73.335 43.3055 70.8053 44.1998 68.3262C45.0941 65.8471 45.8872 63.1403 46.6043 60.5262C46.6043 60.4251 46.6971 60.2142 46.6043 60.1299C46.5115 60.0456 45.8365 60.054 45.5919 60.054H44.512C44.2673 60.054 43.9467 59.9697 43.7358 60.1299C43.6361 60.2311 43.5635 60.3558 43.5249 60.4925C43.1368 61.5466 42.7318 62.5922 42.3269 63.6378C41.8291 64.9448 41.3229 66.2434 40.8336 67.5504L40.7492 67.7865C39.8212 70.2712 38.9213 72.77 38.0495 75.2829C37.2058 77.8126 36.3621 80.3423 35.586 82.872C34.8098 85.4017 34.0927 87.9314 33.4346 90.537C32.7765 93.1426 32.186 95.6892 31.6713 98.2863C31.1567 100.883 30.7264 103.506 30.389 106.137C30.2371 107.309 30.1021 108.489 29.9924 109.662C29.6381 116.601 29.4609 123.862 32.2957 130.371C33.7805 134.191 36.5646 137.724 40.5552 139.116C49.5909 142.548 59.4449 142.775 68.9868 142.801C76.4449 142.531 84.0801 142.674 91.3356 140.726C92.8458 140.322 93.5038 138.576 92.1793 137.497C91.2766 136.763 89.9351 137.176 88.9059 137.328C87.5307 137.539 86.147 137.733 84.7719 137.91C82.0103 138.264 79.243 138.565 76.4702 138.812C71.0199 139.303 65.5342 139.249 60.0946 138.652C58.5506 138.483 57.0152 138.264 55.4797 138.011C54.636 137.868 53.7923 137.708 52.9487 137.539C54.2815 137.747 55.6251 137.88 56.973 137.935C58.3482 138.045 59.7149 138.146 61.0901 138.214C63.8404 138.36 66.5908 138.419 69.3412 138.391C74.8493 138.34 80.3492 137.952 85.8096 137.227C89.4627 136.738 93.082 136.08 96.6845 135.279L93.4701 136.325C93.921 136.941 94.1827 137.675 94.2232 138.437C94.2636 139.199 94.0811 139.957 93.6979 140.617C93.4115 141.076 93.0297 141.467 92.5785 141.766C92.1272 142.064 91.617 142.262 91.0825 142.345C89.7242 142.607 88.3659 142.834 86.9992 143.028C84.2657 143.425 81.5238 143.703 78.7649 143.872C73.2389 144.175 67.7044 144.217 62.17 144.125H60.5754C58.7616 143.72 58.7447 145.811 58.2385 146.975C53.4211 162.634 48.4182 178.225 43.4743 193.842C43.5755 193.538 48.1229 194.685 48.5363 194.786C50.2587 195.261 51.9269 195.914 53.5139 196.734C55.09 197.544 56.5535 198.556 57.8673 199.744C58.5406 200.357 59.1667 201.019 59.7402 201.726C60.2295 202.342 60.5248 203.286 61.2841 203.581C61.7644 203.743 62.2718 203.809 62.7774 203.775H74.7322C75.3745 203.83 76.02 203.717 76.6052 203.446C76.8891 203.298 77.1057 203.047 77.2108 202.745C77.3158 202.442 77.3014 202.111 77.1704 201.819C77.8032 202.839 80.1486 203.438 81.2285 203.665C82.7238 203.847 84.2346 203.864 85.7337 203.716C89.5808 203.716 93.4448 203.826 97.2919 203.868C96.9656 203.512 96.721 203.089 96.5753 202.629C96.4296 202.168 96.3862 201.682 96.4483 201.203C97.4438 202.046 98.4393 202.848 99.4095 203.682C114.334 203.961 129.25 203.606 144.175 203.834C144.464 201.098 144.56 198.345 144.461 195.596C144.386 162.642 144.596 129.705 144.284 96.7685C144.099 96.7292 143.909 96.7123 143.719 96.7179L142.394 96.583L140.066 96.3553C139.689 96.373 139.312 96.339 138.944 96.2541C138.682 96.1276 138.725 95.7903 138.758 95.5627C138.809 95.2001 138.859 94.8291 138.893 94.458L139.104 91.9283C139.109 91.7724 139.14 91.6184 139.197 91.473C139.399 90.9923 140.041 91.2706 140.395 91.2875L141.855 91.3802C142.033 91.4024 142.215 91.3851 142.386 91.3296C142.732 91.1863 142.757 90.6129 142.825 90.3009C142.926 89.8034 143.002 89.2974 143.137 88.7999C143.251 88.3248 143.47 87.8812 143.778 87.5013C144.156 87.1322 144.64 86.8904 145.162 86.8099C145.814 86.6556 146.484 86.5932 147.153 86.6244C148.525 86.7843 149.906 86.8435 151.287 86.8015C150.08 84.9885 149.456 82.3239 147.499 81.2445C145.204 81.9444 142.825 82.5431 140.479 81.6915C136.75 80.4435 133.106 82.4251 129.512 83.0828C118.091 85.882 106.46 87.7377 94.7356 88.6313C92.2046 93.6907 88.5937 98.0502 86.0964 103.084C95.7058 102.536 105.425 101.153 115.017 102.629C105.703 102.379 96.3824 102.66 87.1004 103.472C80.9416 103.691 74.5888 104.189 68.624 102.283C73.6861 102.502 78.8071 103.7 83.9282 103.042C86.6701 99.8547 88.6527 96.0349 90.8125 92.4343L91.1331 92.5608C91.4706 91.279 91.8334 90.031 92.1793 88.724C89.8254 87.6869 86.9317 87.1472 85.6155 84.6765C81.4563 77.8379 81.7262 69.4983 81.3297 61.7742C82.3421 59.0422 81.5322 55.6102 83.6414 53.3419C83.7595 62.2043 82.2662 71.3955 85.2443 79.9797C86.4508 83.5634 89.2433 87.2737 93.487 86.8942C106.884 87.0376 119.961 83.5887 133.004 80.9916C132.862 78.3324 132.987 75.6658 133.376 73.0314C124.661 72.8628 115.979 72.0364 107.281 71.5979C106.682 58.4772 107.197 45.289 105.999 32.202C105.644 27.7666 102.843 22.2434 97.6969 22.5216C93.4507 23.0618 89.4074 24.6562 85.9361 27.1594ZM108.074 44.9854C108.352 48.9908 107.677 53.1311 108.791 57.0268C110.281 52.8482 111.206 48.4895 111.541 44.0663L108.074 44.9854ZM138.961 73.9168C138.457 74.9783 138.142 76.1199 138.033 77.2898C137.858 78.0081 137.967 78.766 138.336 79.4063C138.935 80.2917 140.024 80.2495 140.994 80.2495C142.224 80.2669 143.453 80.1652 144.664 79.946C147.043 79.5749 149.49 79.0184 151.886 79.5243C151.751 79.5243 151.455 78.3522 151.38 78.1752C151.185 77.6799 150.936 77.2076 150.637 76.767C150.029 75.9265 149.364 75.1291 148.646 74.3806C145.474 73.7229 142.175 74.2626 138.961 73.9253M143.677 88.0579C143.635 89.0445 143.55 91.0176 143.508 91.9874C152.67 92.0885 161.838 92.0717 171.012 91.9368C171.012 91.0935 171.012 89.3312 171.012 88.4626C167.814 87.5688 164.541 88.1759 161.293 88.1844C155.438 87.7374 149.549 87.9736 143.685 88.0579M146.275 96.7179C146.225 98.1345 146.166 99.568 146.123 101.002C146.123 103.363 146.123 105.741 146.183 108.11C171.723 108.228 197.258 108.228 222.788 108.11C222.788 104.265 222.788 100.428 222.788 96.583C215.127 96.583 207.484 97.0215 199.84 97.4262L197.157 96.583C180.199 96.5324 163.236 96.5689 146.267 96.6926M145.929 109.645C145.727 138.964 145.929 168.3 145.828 197.636C145.744 199.712 145.914 201.791 146.334 203.826C171.796 203.505 197.284 203.708 222.762 203.708C223.319 196.776 222.881 189.803 223.007 182.854C223.007 158.446 223.007 134.04 223.007 109.636C197.315 109.518 171.63 109.518 145.955 109.636M34.2783 196.034C30.6083 197.223 26.0609 199.407 25.5041 203.682C36.8346 203.615 48.1735 203.682 59.4955 203.632C54.1045 195.714 43.0693 193.842 34.2783 196.034Z" fill="black"/>
<path d="M79.1271 81.0675C78.8149 74.5746 79.1861 67.9384 81.3037 61.749C81.7003 69.4562 81.4303 77.7705 85.5896 84.6513C86.9057 87.122 89.8079 87.6616 92.1533 88.6988C91.8074 89.9805 91.4446 91.2285 91.1072 92.5355L90.7866 92.4091C87.994 91.1358 84.8809 90.6383 82.2402 89.1204C79.9539 87.1388 79.3296 83.943 79.1271 81.0675Z" fill="black"/>
<path d="M146.258 96.7347C163.216 96.6166 180.179 96.5801 197.148 96.6251L199.831 97.4683C196.943 98.0648 194.006 98.3979 191.057 98.4633C176.065 99.1295 161.098 100.327 146.106 101.052C146.149 99.5848 146.208 98.1513 146.258 96.7347Z" fill="black"/>
</svg>
