<svg width="52" height="18" viewBox="0 0 52 18" fill="none" xmlns="http://www.w3.org/2000/svg">
<path d="M26.8917 6.10376C26.8621 8.41605 28.9763 9.70633 30.5689 10.4735C32.2052 11.2606 32.7548 11.7654 32.7483 12.4694C32.7361 13.5466 31.4431 14.0221 30.2331 14.0406C28.1222 14.0729 26.8948 13.4772 25.919 13.0266L25.1585 16.5442C26.1375 16.9902 27.9503 17.3791 29.8302 17.3962C34.2428 17.3962 37.1297 15.2429 37.1453 11.9044C37.1626 7.66731 31.2168 7.43279 31.2575 5.53894C31.2715 4.96468 31.8258 4.35187 33.0404 4.19605C33.6416 4.11734 35.3013 4.05711 37.1829 4.91368L37.9214 1.51029C36.9095 1.14606 35.609 0.797283 33.9897 0.797283C29.8365 0.797283 26.9153 2.97987 26.8917 6.10376ZM45.0178 1.09044C44.2121 1.09044 43.5331 1.55506 43.23 2.26807L36.9268 17.1462H41.3362L42.2136 14.749H47.6018L48.1109 17.1462H51.9972L48.6058 1.09044H45.0178ZM45.6347 5.4277L46.9072 11.4568H43.4222L45.6347 5.4277ZM21.5455 1.09064L18.0699 17.146H22.2717L25.7457 1.09024H21.5455M15.3296 1.09024L10.9562 12.0186L9.18706 2.72667C8.97948 1.68939 8.15971 1.09044 7.24935 1.09044H0.100135L0 1.55667C1.4677 1.87151 3.13527 2.37931 4.14556 2.92264C4.76384 3.25455 4.94014 3.54469 5.14326 4.33339L8.49403 17.1462H12.9343L19.7419 1.09044H15.3296" fill="url(#paint0_linear_1128_112)"/>
<defs>
<linearGradient id="paint0_linear_1128_112" x1="23.9052" y1="17.7292" x2="24.3802" y2="0.681536" gradientUnits="userSpaceOnUse">
<stop stop-color="#222357"/>
<stop offset="1" stop-color="#254AA5"/>
</linearGradient>
</defs>
</svg>
